M48
INCH,LZ
;FILE_FORMAT=2:4
;TYPE=PLATED
;Layer: PTH_Through
;EasyEDA v6.5.51, 2026-06-12 00:00:43
;721b8d7b2a2e4cdb981c8f928fe5aa8b,10
;Gerber Generator version 0.2
;Holesize 1 = 0.0120 inch
T01C0.0120
;Holesize 2 = 0.0300 inch
T02C0.0300
;Holesize 3 = 0.0320 inch
T03C0.0320
;Holesize 4 = 0.0350 inch
T04C0.0350
;Holesize 5 = 0.0390 inch
T05C0.0390
;Holesize 6 = 0.0410 inch
T06C0.0410
;Holesize 7 = 0.0470 inch
T07C0.0470
;Holesize 8 = 0.0590 inch
T08C0.0590
%
G05
G90
T01
X044342Y037624
X039263Y018121
X032352Y029975
X033185Y019282
X035517Y018287
T02
X030571Y025084G85X030571Y025082
X030571Y026084G85X030571Y026082
X030571Y024084G85X030571Y024082
T03
X021030Y024425G85X021896Y024425
X019573Y024385G85X019573Y024858
X023353Y024385G85X023353Y024858
X019573Y022535G85X019573Y023007
X023353Y022535G85X023353Y023007
T04
X032966Y029387G85X032968Y029387
X034966Y029387G85X034968Y029387
X025222Y023487G85X025224Y023487
X026223Y023486G85X026223Y023488
X027223Y023486G85X027223Y023488
X028223Y023486G85X028223Y023488
X025223Y026486G85X025223Y026488
X026223Y026486G85X026223Y026488
X027223Y026486G85X027223Y026488
X028223Y026486G85X028223Y026488
T05
X041828Y024187G85X041830Y024187
X039828Y024187G85X039830Y024187
T06
X040480Y032937G85X040478Y032937
X041464Y032937G85X041462Y032937
T07
X040541Y027787G85X040543Y027787
X041541Y027787G85X041543Y027787
X042541Y027787G85X042543Y027787
X020970Y017887G85X020972Y017887
X023923Y017887G85X023925Y017887
X020478Y030163G85X020480Y030163
X022447Y030163G85X022449Y030163
X024415Y030163G85X024417Y030163
X026383Y030163G85X026386Y030163
X028352Y030163G85X028354Y030163
X030321Y030163G85X030323Y030163
X020478Y038037G85X020480Y038037
X024415Y038037G85X024417Y038037
X026383Y038037G85X026386Y038037
X028352Y038037G85X028354Y038037
X030321Y038037G85X030323Y038037
T08
X021462Y022062G85X021464Y022062
M30
