G04 Layer: TopLayer*
G04 EasyEDA v6.5.51, 2026-06-12 00:00:43*
G04 721b8d7b2a2e4cdb981c8f928fe5aa8b,10*
G04 Gerber Generator version 0.2*
G04 Scale: 100 percent, Rotated: No, Reflected: No *
G04 Dimensions in inches *
G04 leading zeros omitted , absolute positions ,3 integer and 6 decimal *
%FSLAX36Y36*%
%MOIN*%

%ADD10C,0.0100*%
%ADD11C,0.0005*%
%ADD12R,0.0555X0.0532*%
%ADD13R,0.0585X0.0680*%
%ADD14R,0.0413X0.0717*%
%ADD15R,0.0585X0.1106*%
%ADD16R,0.0101X0.1106*%
%ADD17R,0.0318X0.0340*%
%ADD18R,0.0315X0.0158*%
%ADD19R,0.0571X0.0571*%
%ADD20R,0.0236X0.0236*%
%ADD21R,0.0276X0.0276*%
%ADD22O,0.022598X0.080236*%
%ADD23R,0.0948X0.0385*%
%ADD24R,0.2248X0.2184*%
%ADD25C,0.0630*%
%ADD26C,0.0906*%
%ADD27C,0.0866*%
%ADD28O,0.137795X0.047244*%
%ADD29O,0.047244X0.098425*%
%ADD30C,0.0669*%
%ADD31R,0.0709X0.0709*%
%ADD32C,0.0709*%
%ADD33C,0.0600*%
%ADD34C,0.0787*%
%ADD35R,0.0787X0.0787*%
%ADD36R,0.0591X0.0591*%
%ADD37C,0.0591*%
%ADD38C,0.0240*%

%LPD*%
G36*
X1754800Y1669520D02*
G01*
X1753260Y1669840D01*
X1751960Y1670700D01*
X1751100Y1672000D01*
X1750800Y1673520D01*
X1750800Y3967960D01*
X1751100Y3969500D01*
X1751960Y3970779D01*
X1753260Y3971660D01*
X1754800Y3971960D01*
X5190960Y3971960D01*
X5192480Y3971660D01*
X5193780Y3970779D01*
X5194640Y3969500D01*
X5194960Y3967960D01*
X5194960Y1673520D01*
X5194640Y1672000D01*
X5193780Y1670700D01*
X5192480Y1669840D01*
X5190960Y1669520D01*
G37*

%LPC*%
G36*
X2144420Y1726339D02*
G01*
X3857640Y1726339D01*
X3860800Y1726660D01*
X3863660Y1727520D01*
X3866280Y1728920D01*
X3868720Y1730940D01*
X3889300Y1751500D01*
X3891300Y1753940D01*
X3892700Y1756579D01*
X3894000Y1761000D01*
X3894880Y1762160D01*
X3896120Y1762920D01*
X3897559Y1763200D01*
X3907679Y1763200D01*
X3910179Y1763480D01*
X3912320Y1764220D01*
X3914260Y1765440D01*
X3915860Y1767060D01*
X3917080Y1768980D01*
X3917840Y1771140D01*
X3918120Y1773620D01*
X3918120Y1786260D01*
X3918460Y1787880D01*
X3919420Y1789220D01*
X3920820Y1790040D01*
X3922460Y1790240D01*
X3926259Y1789920D01*
X3930100Y1790260D01*
X3933840Y1791260D01*
X3937340Y1792880D01*
X3940520Y1795100D01*
X3943240Y1797840D01*
X3945460Y1801000D01*
X3947100Y1804520D01*
X3948100Y1808240D01*
X3948440Y1812100D01*
X3948100Y1815960D01*
X3947100Y1819680D01*
X3945460Y1823200D01*
X3943240Y1826360D01*
X3940520Y1829100D01*
X3937340Y1831320D01*
X3933840Y1832940D01*
X3930100Y1833940D01*
X3926259Y1834280D01*
X3922460Y1833959D01*
X3920820Y1834160D01*
X3919420Y1834980D01*
X3918460Y1836320D01*
X3918120Y1837940D01*
X3918120Y1876780D01*
X3918420Y1878300D01*
X3919280Y1879600D01*
X3920580Y1880460D01*
X3922120Y1880780D01*
X4027559Y1880780D01*
X4029100Y1880460D01*
X4030400Y1879600D01*
X4031259Y1878300D01*
X4031560Y1876780D01*
X4031560Y1773620D01*
X4031840Y1771140D01*
X4032600Y1768980D01*
X4033820Y1767060D01*
X4035419Y1765440D01*
X4037360Y1764220D01*
X4039500Y1763480D01*
X4042000Y1763200D01*
X4100000Y1763200D01*
X4102500Y1763480D01*
X4104640Y1764220D01*
X4106580Y1765440D01*
X4108180Y1767060D01*
X4109400Y1768980D01*
X4110160Y1771140D01*
X4110440Y1773620D01*
X4110440Y1883720D01*
X4110160Y1886200D01*
X4109400Y1888360D01*
X4108180Y1890280D01*
X4106580Y1891900D01*
X4104640Y1893120D01*
X4102500Y1893860D01*
X4100000Y1894139D01*
X4089880Y1894139D01*
X4088440Y1894420D01*
X4087200Y1895180D01*
X4086320Y1896339D01*
X4085020Y1900780D01*
X4083620Y1903400D01*
X4081620Y1905840D01*
X4080880Y1906579D01*
X4078420Y1908600D01*
X4075800Y1910000D01*
X4072960Y1910860D01*
X4069800Y1911180D01*
X3341280Y1911180D01*
X3339720Y1911480D01*
X3338399Y1912400D01*
X3337540Y1913740D01*
X3337280Y1915320D01*
X3337660Y1916860D01*
X3339380Y1920580D01*
X3340380Y1924319D01*
X3340720Y1928160D01*
X3340380Y1932020D01*
X3339380Y1935760D01*
X3337760Y1939259D01*
X3335539Y1942440D01*
X3332799Y1945160D01*
X3329640Y1947380D01*
X3326139Y1949019D01*
X3321920Y1950120D01*
X3320419Y1950860D01*
X3319380Y1952160D01*
X3318940Y1953760D01*
X3319200Y1955420D01*
X3320100Y1956819D01*
X3604880Y2241600D01*
X3606180Y2242460D01*
X3607720Y2242780D01*
X4022020Y2242780D01*
X4025179Y2243080D01*
X4028020Y2243940D01*
X4030640Y2245340D01*
X4033100Y2247360D01*
X4164400Y2378660D01*
X4165620Y2379500D01*
X4167060Y2379840D01*
X4168519Y2379620D01*
X4172120Y2378400D01*
X4177460Y2377340D01*
X4182919Y2376980D01*
X4188360Y2377340D01*
X4193700Y2378400D01*
X4198860Y2380160D01*
X4203760Y2382560D01*
X4208280Y2385600D01*
X4212380Y2389200D01*
X4215980Y2393300D01*
X4219020Y2397820D01*
X4221420Y2402720D01*
X4223180Y2407880D01*
X4224240Y2413220D01*
X4224600Y2418660D01*
X4224240Y2424120D01*
X4223180Y2429460D01*
X4221420Y2434620D01*
X4219020Y2439520D01*
X4215980Y2444040D01*
X4212380Y2448140D01*
X4208280Y2451740D01*
X4203760Y2454780D01*
X4198860Y2457180D01*
X4193700Y2458940D01*
X4188360Y2460000D01*
X4182919Y2460360D01*
X4177460Y2460000D01*
X4172120Y2458940D01*
X4166960Y2457180D01*
X4162060Y2454780D01*
X4157540Y2451740D01*
X4153440Y2448140D01*
X4149840Y2444040D01*
X4146800Y2439520D01*
X4144400Y2434620D01*
X4142640Y2429460D01*
X4141580Y2424120D01*
X4141220Y2418660D01*
X4141580Y2413220D01*
X4142640Y2407880D01*
X4143860Y2404280D01*
X4144080Y2402820D01*
X4143740Y2401380D01*
X4142900Y2400160D01*
X4017080Y2274340D01*
X4015779Y2273480D01*
X4014260Y2273180D01*
X3599960Y2273180D01*
X3596800Y2272860D01*
X3593960Y2272000D01*
X3591320Y2270600D01*
X3588880Y2268580D01*
X3219720Y1899420D01*
X3217700Y1896960D01*
X3216300Y1894340D01*
X3215440Y1891500D01*
X3215120Y1888340D01*
X3215120Y1781540D01*
X3214820Y1780000D01*
X3213940Y1778700D01*
X3212660Y1777840D01*
X3211120Y1777540D01*
X3122120Y1777540D01*
X3120580Y1777840D01*
X3119280Y1778700D01*
X3118420Y1780000D01*
X3118120Y1781540D01*
X3118120Y1883720D01*
X3117840Y1886200D01*
X3117080Y1888360D01*
X3115860Y1890280D01*
X3114260Y1891900D01*
X3112320Y1893120D01*
X3110179Y1893860D01*
X3107679Y1894139D01*
X3097559Y1894139D01*
X3096120Y1894420D01*
X3094880Y1895180D01*
X3094000Y1896339D01*
X3092700Y1900780D01*
X3091300Y1903400D01*
X3089420Y1905700D01*
X3087120Y1907580D01*
X3084500Y1908980D01*
X3081640Y1909840D01*
X3078480Y1910160D01*
X2920220Y1910160D01*
X2918680Y1910460D01*
X2917380Y1911339D01*
X2914860Y1913860D01*
X2912400Y1915880D01*
X2909780Y1917280D01*
X2906940Y1918140D01*
X2903980Y1918440D01*
X2901000Y1918140D01*
X2898159Y1917280D01*
X2895539Y1915880D01*
X2893240Y1913980D01*
X2891340Y1911680D01*
X2889940Y1909060D01*
X2889080Y1906220D01*
X2888800Y1903260D01*
X2889080Y1900280D01*
X2889940Y1897440D01*
X2891340Y1894820D01*
X2893360Y1892360D01*
X2901380Y1884360D01*
X2903820Y1882340D01*
X2906460Y1880940D01*
X2909300Y1880080D01*
X2912460Y1879760D01*
X3035240Y1879760D01*
X3036780Y1879460D01*
X3038080Y1878580D01*
X3038940Y1877300D01*
X3039240Y1875760D01*
X3039240Y1781540D01*
X3038940Y1780000D01*
X3038080Y1778700D01*
X3036780Y1777840D01*
X3035240Y1777540D01*
X2722120Y1777540D01*
X2720580Y1777840D01*
X2719280Y1778700D01*
X2718420Y1780000D01*
X2718120Y1781540D01*
X2718120Y1883720D01*
X2717840Y1886200D01*
X2717080Y1888360D01*
X2715860Y1890280D01*
X2714260Y1891900D01*
X2712320Y1893120D01*
X2710179Y1893860D01*
X2707679Y1894139D01*
X2697559Y1894139D01*
X2696120Y1894420D01*
X2694880Y1895180D01*
X2694000Y1896339D01*
X2692700Y1900780D01*
X2691300Y1903400D01*
X2689420Y1905700D01*
X2687120Y1907580D01*
X2684500Y1908980D01*
X2681640Y1909840D01*
X2678480Y1910160D01*
X2465520Y1910160D01*
X2464000Y1910460D01*
X2462700Y1911339D01*
X2195340Y2178700D01*
X2194460Y2180000D01*
X2194160Y2181560D01*
X2194500Y2183100D01*
X2196580Y2187940D01*
X2198360Y2193900D01*
X2199440Y2200020D01*
X2199800Y2206220D01*
X2199440Y2212440D01*
X2198360Y2218560D01*
X2196580Y2224520D01*
X2194100Y2230240D01*
X2191000Y2235620D01*
X2187280Y2240620D01*
X2183020Y2245140D01*
X2178240Y2249140D01*
X2173060Y2252560D01*
X2169540Y2254320D01*
X2168180Y2255460D01*
X2167420Y2257060D01*
X2167440Y2258820D01*
X2168220Y2260420D01*
X2169600Y2261500D01*
X2171340Y2261900D01*
X2297440Y2261900D01*
X2298980Y2261600D01*
X2300280Y2260720D01*
X2301140Y2259440D01*
X2301440Y2257900D01*
X2301440Y2251660D01*
X2301800Y2246700D01*
X2302820Y2241980D01*
X2304520Y2237460D01*
X2306820Y2233220D01*
X2309720Y2229360D01*
X2313120Y2225960D01*
X2317000Y2223060D01*
X2321220Y2220760D01*
X2325740Y2219060D01*
X2330460Y2218040D01*
X2335280Y2217700D01*
X2340080Y2218040D01*
X2344800Y2219060D01*
X2349320Y2220760D01*
X2353560Y2223060D01*
X2357420Y2225960D01*
X2360820Y2229360D01*
X2363720Y2233220D01*
X2366020Y2237460D01*
X2367720Y2241980D01*
X2368740Y2246700D01*
X2369100Y2251660D01*
X2369100Y2302540D01*
X2368740Y2307500D01*
X2367720Y2312220D01*
X2366020Y2316740D01*
X2363720Y2320980D01*
X2360820Y2324840D01*
X2357420Y2328240D01*
X2353560Y2331140D01*
X2349320Y2333440D01*
X2344800Y2335140D01*
X2340080Y2336160D01*
X2335280Y2336500D01*
X2330460Y2336160D01*
X2325740Y2335140D01*
X2321220Y2333440D01*
X2317000Y2331140D01*
X2313120Y2328240D01*
X2309720Y2324840D01*
X2306820Y2320980D01*
X2304520Y2316740D01*
X2302820Y2312220D01*
X2301800Y2307500D01*
X2301440Y2302540D01*
X2301440Y2296300D01*
X2301140Y2294780D01*
X2300280Y2293480D01*
X2298980Y2292600D01*
X2297440Y2292300D01*
X1995140Y2292300D01*
X1993620Y2292600D01*
X1992320Y2293480D01*
X1991440Y2294780D01*
X1991140Y2296300D01*
X1991140Y2302540D01*
X1990780Y2307500D01*
X1989760Y2312220D01*
X1988080Y2316740D01*
X1985760Y2320980D01*
X1982880Y2324840D01*
X1979460Y2328240D01*
X1975600Y2331140D01*
X1971360Y2333440D01*
X1966840Y2335140D01*
X1962140Y2336160D01*
X1957320Y2336500D01*
X1952500Y2336160D01*
X1947800Y2335140D01*
X1943280Y2333440D01*
X1939040Y2331140D01*
X1935180Y2328240D01*
X1931759Y2324840D01*
X1928880Y2320980D01*
X1926560Y2316740D01*
X1924880Y2312220D01*
X1923860Y2307500D01*
X1923500Y2302540D01*
X1923500Y2251660D01*
X1923860Y2246700D01*
X1924880Y2241980D01*
X1926560Y2237460D01*
X1928880Y2233220D01*
X1931759Y2229360D01*
X1935180Y2225960D01*
X1939040Y2223060D01*
X1943280Y2220760D01*
X1947800Y2219060D01*
X1952500Y2218040D01*
X1957320Y2217700D01*
X1962140Y2218040D01*
X1966840Y2219060D01*
X1971360Y2220760D01*
X1975600Y2223060D01*
X1979460Y2225960D01*
X1982880Y2229360D01*
X1985760Y2233220D01*
X1988080Y2237460D01*
X1989760Y2241980D01*
X1990780Y2246700D01*
X1991140Y2251660D01*
X1991140Y2257900D01*
X1991440Y2259440D01*
X1992320Y2260720D01*
X1993620Y2261600D01*
X1995140Y2261900D01*
X2121260Y2261900D01*
X2123000Y2261500D01*
X2124380Y2260420D01*
X2125160Y2258820D01*
X2125180Y2257060D01*
X2124420Y2255460D01*
X2123060Y2254320D01*
X2119540Y2252560D01*
X2114360Y2249140D01*
X2109580Y2245140D01*
X2105320Y2240620D01*
X2101600Y2235620D01*
X2098500Y2230240D01*
X2096020Y2224520D01*
X2094240Y2218560D01*
X2093160Y2212440D01*
X2092800Y2206220D01*
X2093160Y2200020D01*
X2094240Y2193900D01*
X2096020Y2187940D01*
X2098500Y2182220D01*
X2101600Y2176840D01*
X2105320Y2171840D01*
X2109580Y2167320D01*
X2114360Y2163320D01*
X2119540Y2159900D01*
X2125100Y2157100D01*
X2130960Y2154980D01*
X2137000Y2153540D01*
X2143180Y2152820D01*
X2149420Y2152820D01*
X2155600Y2153540D01*
X2161640Y2154980D01*
X2167500Y2157100D01*
X2169200Y2157960D01*
X2170800Y2158380D01*
X2172440Y2158120D01*
X2173820Y2157220D01*
X2446680Y1884360D01*
X2449140Y1882340D01*
X2451760Y1880940D01*
X2454600Y1880080D01*
X2457760Y1879760D01*
X2635240Y1879760D01*
X2636780Y1879460D01*
X2638080Y1878580D01*
X2638940Y1877300D01*
X2639240Y1875760D01*
X2639240Y1781540D01*
X2638940Y1780000D01*
X2638080Y1778700D01*
X2636780Y1777840D01*
X2635240Y1777540D01*
X2441420Y1777540D01*
X2439720Y1777920D01*
X2438340Y1778980D01*
X2437560Y1780540D01*
X2437500Y1782280D01*
X2437620Y1782960D01*
X2437980Y1788660D01*
X2437620Y1794379D01*
X2436560Y1800020D01*
X2434780Y1805460D01*
X2432340Y1810660D01*
X2429280Y1815480D01*
X2425620Y1819900D01*
X2421440Y1823820D01*
X2416800Y1827200D01*
X2411780Y1829960D01*
X2406460Y1832060D01*
X2400900Y1833480D01*
X2395220Y1834199D01*
X2389500Y1834199D01*
X2383820Y1833480D01*
X2378260Y1832060D01*
X2372940Y1829960D01*
X2367920Y1827200D01*
X2363280Y1823820D01*
X2359100Y1819900D01*
X2355440Y1815480D01*
X2352380Y1810660D01*
X2349940Y1805460D01*
X2348160Y1800020D01*
X2347100Y1794379D01*
X2346740Y1788660D01*
X2347100Y1782960D01*
X2348160Y1777320D01*
X2349940Y1771879D01*
X2352380Y1766680D01*
X2354800Y1762880D01*
X2355380Y1761300D01*
X2355260Y1759600D01*
X2354440Y1758120D01*
X2353080Y1757100D01*
X2351420Y1756740D01*
X2152180Y1756740D01*
X2150640Y1757040D01*
X2149340Y1757920D01*
X2140180Y1767080D01*
X2139280Y1768440D01*
X2139000Y1770040D01*
X2139520Y1771879D01*
X2141280Y1777320D01*
X2142360Y1782960D01*
X2142720Y1788660D01*
X2142360Y1794379D01*
X2141280Y1800020D01*
X2139520Y1805460D01*
X2137080Y1810660D01*
X2134000Y1815480D01*
X2130340Y1819900D01*
X2126180Y1823820D01*
X2121540Y1827200D01*
X2116520Y1829960D01*
X2111180Y1832060D01*
X2105640Y1833480D01*
X2099960Y1834199D01*
X2094220Y1834199D01*
X2088540Y1833480D01*
X2083000Y1832060D01*
X2077660Y1829960D01*
X2072640Y1827200D01*
X2068000Y1823820D01*
X2063839Y1819900D01*
X2060180Y1815480D01*
X2057100Y1810660D01*
X2054660Y1805460D01*
X2052900Y1800020D01*
X2051819Y1794379D01*
X2051459Y1788660D01*
X2051819Y1782960D01*
X2052900Y1777320D01*
X2054660Y1771879D01*
X2057100Y1766680D01*
X2060180Y1761860D01*
X2063839Y1757440D01*
X2068000Y1753520D01*
X2072640Y1750140D01*
X2077660Y1747380D01*
X2083000Y1745280D01*
X2088540Y1743860D01*
X2094220Y1743140D01*
X2099960Y1743140D01*
X2105640Y1743860D01*
X2111180Y1745280D01*
X2114340Y1746519D01*
X2115840Y1746800D01*
X2117360Y1746500D01*
X2118640Y1745640D01*
X2133340Y1730940D01*
X2135780Y1728920D01*
X2138420Y1727520D01*
X2141260Y1726660D01*
G37*
G36*
X2492980Y2308940D02*
G01*
X2551580Y2308940D01*
X2554080Y2309220D01*
X2556220Y2309980D01*
X2558160Y2311180D01*
X2559760Y2312800D01*
X2560980Y2314720D01*
X2561720Y2316880D01*
X2562000Y2319360D01*
X2562000Y2377980D01*
X2561720Y2380460D01*
X2560980Y2382620D01*
X2559760Y2384540D01*
X2558160Y2386160D01*
X2556220Y2387360D01*
X2554080Y2388120D01*
X2551580Y2388400D01*
X2492980Y2388400D01*
X2490480Y2388120D01*
X2488340Y2387360D01*
X2486400Y2386160D01*
X2484800Y2384540D01*
X2483580Y2382620D01*
X2482840Y2380460D01*
X2482560Y2377980D01*
X2482560Y2319360D01*
X2482840Y2316880D01*
X2483580Y2314720D01*
X2484800Y2312800D01*
X2486400Y2311180D01*
X2488340Y2309980D01*
X2490480Y2309220D01*
G37*
G36*
X2719620Y2309040D02*
G01*
X2724940Y2309040D01*
X2730200Y2309740D01*
X2735299Y2311140D01*
X2740200Y2313220D01*
X2744760Y2315920D01*
X2748920Y2319220D01*
X2752620Y2323020D01*
X2755760Y2327300D01*
X2758300Y2331960D01*
X2760220Y2336900D01*
X2761440Y2342060D01*
X2761980Y2347340D01*
X2761800Y2352640D01*
X2760920Y2357880D01*
X2759340Y2362940D01*
X2757120Y2367760D01*
X2754260Y2372240D01*
X2750840Y2376280D01*
X2746900Y2379840D01*
X2742520Y2382840D01*
X2737780Y2385240D01*
X2732780Y2386980D01*
X2727580Y2388040D01*
X2722280Y2388380D01*
X2716980Y2388040D01*
X2711780Y2386980D01*
X2706780Y2385240D01*
X2702040Y2382840D01*
X2697660Y2379840D01*
X2693720Y2376280D01*
X2690299Y2372240D01*
X2687440Y2367760D01*
X2685220Y2362940D01*
X2683639Y2357880D01*
X2682760Y2352640D01*
X2682580Y2347340D01*
X2683120Y2342060D01*
X2684340Y2336900D01*
X2686259Y2331960D01*
X2688800Y2327300D01*
X2691940Y2323020D01*
X2695640Y2319220D01*
X2699800Y2315920D01*
X2704360Y2313220D01*
X2709260Y2311140D01*
X2714360Y2309740D01*
G37*
G36*
X4458660Y2331460D02*
G01*
X4489980Y2331460D01*
X4492460Y2331740D01*
X4494620Y2332500D01*
X4496540Y2333700D01*
X4498160Y2335320D01*
X4499360Y2337240D01*
X4500120Y2339400D01*
X4500580Y2341520D01*
X4501380Y2342620D01*
X4502480Y2343380D01*
X4504180Y2343780D01*
X4507020Y2344640D01*
X4509640Y2346040D01*
X4511940Y2347940D01*
X4513840Y2350240D01*
X4515240Y2352860D01*
X4516100Y2355700D01*
X4516420Y2358860D01*
X4516420Y2555980D01*
X4516640Y2557340D01*
X4517320Y2558520D01*
X4519380Y2561019D01*
X4520780Y2563660D01*
X4521640Y2566500D01*
X4521960Y2569660D01*
X4521960Y2627460D01*
X4522260Y2629000D01*
X4523120Y2630299D01*
X4524420Y2631160D01*
X4525960Y2631460D01*
X4549280Y2631460D01*
X4551760Y2631740D01*
X4553920Y2632500D01*
X4555840Y2633700D01*
X4557460Y2635320D01*
X4558680Y2637240D01*
X4559420Y2639400D01*
X4559900Y2641300D01*
X4560800Y2642460D01*
X4562040Y2643200D01*
X4563460Y2643480D01*
X4644500Y2643480D01*
X4645920Y2643200D01*
X4647160Y2642460D01*
X4648040Y2641300D01*
X4648520Y2639400D01*
X4649280Y2637240D01*
X4650480Y2635320D01*
X4652100Y2633700D01*
X4654020Y2632500D01*
X4656180Y2631740D01*
X4658660Y2631460D01*
X4689980Y2631460D01*
X4692460Y2631740D01*
X4694620Y2632500D01*
X4696540Y2633700D01*
X4698160Y2635320D01*
X4699360Y2637240D01*
X4700120Y2639400D01*
X4700400Y2641880D01*
X4700400Y2675460D01*
X4700120Y2677940D01*
X4699360Y2680100D01*
X4698160Y2682020D01*
X4696540Y2683639D01*
X4694620Y2684840D01*
X4692460Y2685600D01*
X4689980Y2685880D01*
X4658660Y2685880D01*
X4656180Y2685600D01*
X4654020Y2684840D01*
X4652100Y2683639D01*
X4650480Y2682020D01*
X4649280Y2680100D01*
X4648520Y2677940D01*
X4648040Y2676040D01*
X4647160Y2674880D01*
X4645920Y2674140D01*
X4644500Y2673880D01*
X4563460Y2673880D01*
X4562040Y2674140D01*
X4560800Y2674880D01*
X4559900Y2676040D01*
X4559420Y2677940D01*
X4558680Y2680100D01*
X4557460Y2682020D01*
X4555840Y2683639D01*
X4553920Y2684840D01*
X4551760Y2685600D01*
X4549280Y2685880D01*
X4517980Y2685880D01*
X4515500Y2685600D01*
X4513340Y2684840D01*
X4511420Y2683639D01*
X4509800Y2682020D01*
X4508580Y2680100D01*
X4507840Y2677940D01*
X4507360Y2675820D01*
X4506580Y2674720D01*
X4505460Y2673960D01*
X4503780Y2673560D01*
X4500940Y2672700D01*
X4498320Y2671300D01*
X4496020Y2669400D01*
X4494120Y2667100D01*
X4492720Y2664480D01*
X4491860Y2661640D01*
X4491560Y2658480D01*
X4491560Y2583120D01*
X4491240Y2581600D01*
X4490380Y2580299D01*
X4489080Y2579420D01*
X4487560Y2579120D01*
X2814980Y2579120D01*
X2813460Y2579420D01*
X2812160Y2580299D01*
X2760760Y2631700D01*
X2759900Y2632960D01*
X2759580Y2634460D01*
X2759860Y2635960D01*
X2760220Y2636900D01*
X2761440Y2642060D01*
X2761980Y2647340D01*
X2761800Y2652640D01*
X2760920Y2657880D01*
X2759340Y2662940D01*
X2757120Y2667760D01*
X2754260Y2672240D01*
X2750840Y2676280D01*
X2746900Y2679840D01*
X2742520Y2682840D01*
X2737780Y2685240D01*
X2732780Y2686980D01*
X2727580Y2688039D01*
X2722280Y2688380D01*
X2716980Y2688039D01*
X2711780Y2686980D01*
X2706780Y2685240D01*
X2702040Y2682840D01*
X2697660Y2679840D01*
X2693720Y2676280D01*
X2690299Y2672240D01*
X2687440Y2667760D01*
X2685220Y2662940D01*
X2683639Y2657880D01*
X2682760Y2652640D01*
X2682580Y2647340D01*
X2683120Y2642060D01*
X2684340Y2636900D01*
X2686259Y2631960D01*
X2688800Y2627300D01*
X2691940Y2623020D01*
X2695640Y2619220D01*
X2699800Y2615920D01*
X2704360Y2613220D01*
X2709260Y2611139D01*
X2714360Y2609740D01*
X2719620Y2609040D01*
X2724940Y2609040D01*
X2730200Y2609740D01*
X2735419Y2611180D01*
X2736820Y2611300D01*
X2738159Y2610960D01*
X2739300Y2610160D01*
X2796139Y2553320D01*
X2798600Y2551300D01*
X2801220Y2549900D01*
X2804060Y2549040D01*
X2807220Y2548720D01*
X4482020Y2548720D01*
X4483540Y2548420D01*
X4484840Y2547540D01*
X4485700Y2546260D01*
X4486020Y2544720D01*
X4486020Y2389880D01*
X4485700Y2388340D01*
X4484840Y2387040D01*
X4483540Y2386180D01*
X4482020Y2385880D01*
X4458660Y2385880D01*
X4456180Y2385600D01*
X4454020Y2384840D01*
X4452100Y2383640D01*
X4450480Y2382020D01*
X4449280Y2380100D01*
X4448520Y2377940D01*
X4448240Y2375460D01*
X4448240Y2341880D01*
X4448520Y2339400D01*
X4449280Y2337240D01*
X4450480Y2335320D01*
X4452100Y2333700D01*
X4454020Y2332500D01*
X4456180Y2331740D01*
G37*
G36*
X3982919Y2376980D02*
G01*
X3988360Y2377340D01*
X3993700Y2378400D01*
X3998860Y2380160D01*
X4003759Y2382560D01*
X4008279Y2385600D01*
X4012380Y2389200D01*
X4015980Y2393300D01*
X4019020Y2397820D01*
X4021420Y2402720D01*
X4023180Y2407880D01*
X4024240Y2413220D01*
X4024600Y2418660D01*
X4024240Y2424120D01*
X4023180Y2429460D01*
X4021420Y2434620D01*
X4019020Y2439520D01*
X4015980Y2444040D01*
X4012380Y2448140D01*
X4008279Y2451740D01*
X4003759Y2454780D01*
X3998860Y2457180D01*
X3993700Y2458940D01*
X3988360Y2460000D01*
X3982919Y2460360D01*
X3977460Y2460000D01*
X3972120Y2458940D01*
X3966960Y2457180D01*
X3962060Y2454780D01*
X3957540Y2451740D01*
X3953440Y2448140D01*
X3949840Y2444040D01*
X3946800Y2439520D01*
X3944400Y2434620D01*
X3942640Y2429460D01*
X3941580Y2424120D01*
X3941220Y2418660D01*
X3941580Y2413220D01*
X3942640Y2407880D01*
X3944400Y2402720D01*
X3946800Y2397820D01*
X3949840Y2393300D01*
X3953440Y2389200D01*
X3957540Y2385600D01*
X3962060Y2382560D01*
X3966960Y2380160D01*
X3972120Y2378400D01*
X3977460Y2377340D01*
G37*
G36*
X3534480Y2385260D02*
G01*
X3538200Y2385600D01*
X3541820Y2386560D01*
X3545220Y2388140D01*
X3548279Y2390300D01*
X3550920Y2392940D01*
X3553080Y2396000D01*
X3554660Y2399400D01*
X3555600Y2402940D01*
X3556400Y2404480D01*
X3557780Y2405540D01*
X3559480Y2405900D01*
X3561160Y2405540D01*
X3562540Y2404480D01*
X3563340Y2402940D01*
X3564280Y2399400D01*
X3565860Y2396000D01*
X3568020Y2392940D01*
X3570659Y2390300D01*
X3573720Y2388140D01*
X3577120Y2386560D01*
X3580740Y2385600D01*
X3584480Y2385260D01*
X3588200Y2385600D01*
X3591820Y2386560D01*
X3595220Y2388140D01*
X3598279Y2390300D01*
X3600920Y2392940D01*
X3603080Y2396000D01*
X3604660Y2399400D01*
X3605600Y2402940D01*
X3606400Y2404480D01*
X3607780Y2405540D01*
X3609480Y2405900D01*
X3611160Y2405540D01*
X3612540Y2404480D01*
X3613340Y2402940D01*
X3614280Y2399400D01*
X3615860Y2396000D01*
X3618020Y2392940D01*
X3620659Y2390300D01*
X3623720Y2388140D01*
X3627120Y2386560D01*
X3630740Y2385600D01*
X3634480Y2385260D01*
X3638200Y2385600D01*
X3641820Y2386560D01*
X3645220Y2388140D01*
X3648279Y2390300D01*
X3650920Y2392940D01*
X3653080Y2396000D01*
X3654660Y2399400D01*
X3655620Y2403020D01*
X3655960Y2406920D01*
X3655960Y2464220D01*
X3655620Y2468120D01*
X3654660Y2471740D01*
X3653080Y2475140D01*
X3650920Y2478200D01*
X3648279Y2480840D01*
X3645220Y2483000D01*
X3641820Y2484580D01*
X3638200Y2485540D01*
X3634480Y2485880D01*
X3630740Y2485540D01*
X3627120Y2484580D01*
X3623720Y2483000D01*
X3620659Y2480840D01*
X3618020Y2478200D01*
X3615860Y2475140D01*
X3614280Y2471740D01*
X3613340Y2468200D01*
X3612540Y2466660D01*
X3611160Y2465600D01*
X3609480Y2465240D01*
X3607780Y2465600D01*
X3606400Y2466660D01*
X3605600Y2468200D01*
X3604660Y2471740D01*
X3603080Y2475140D01*
X3600920Y2478200D01*
X3598279Y2480840D01*
X3595220Y2483000D01*
X3591820Y2484580D01*
X3588200Y2485540D01*
X3584480Y2485880D01*
X3580740Y2485540D01*
X3577120Y2484580D01*
X3573720Y2483000D01*
X3570659Y2480840D01*
X3568020Y2478200D01*
X3565860Y2475140D01*
X3564280Y2471740D01*
X3563340Y2468200D01*
X3562540Y2466660D01*
X3561160Y2465600D01*
X3559480Y2465240D01*
X3557780Y2465600D01*
X3556400Y2466660D01*
X3555600Y2468200D01*
X3554660Y2471740D01*
X3553080Y2475140D01*
X3550920Y2478200D01*
X3548279Y2480840D01*
X3545220Y2483000D01*
X3541820Y2484580D01*
X3538200Y2485540D01*
X3534480Y2485880D01*
X3530740Y2485540D01*
X3527120Y2484580D01*
X3523720Y2483000D01*
X3520659Y2480840D01*
X3518020Y2478200D01*
X3515860Y2475140D01*
X3514280Y2471740D01*
X3513320Y2468120D01*
X3512980Y2464220D01*
X3512980Y2406920D01*
X3513320Y2403020D01*
X3514280Y2399400D01*
X3515860Y2396000D01*
X3518020Y2392940D01*
X3520659Y2390300D01*
X3523720Y2388140D01*
X3527120Y2386560D01*
X3530740Y2385600D01*
G37*
G36*
X1957320Y2402740D02*
G01*
X1962140Y2403080D01*
X1966840Y2404100D01*
X1971360Y2405800D01*
X1975600Y2408100D01*
X1979460Y2411000D01*
X1982880Y2414400D01*
X1985760Y2418260D01*
X1988080Y2422500D01*
X1989760Y2427020D01*
X1990780Y2431740D01*
X1991140Y2436700D01*
X1991140Y2472800D01*
X1991440Y2474320D01*
X1992320Y2475620D01*
X2098600Y2581920D01*
X2100020Y2582840D01*
X2101700Y2583080D01*
X2103320Y2582620D01*
X2104620Y2581540D01*
X2105340Y2580000D01*
X2105360Y2578320D01*
X2104860Y2575840D01*
X2104520Y2570400D01*
X2104860Y2564960D01*
X2105940Y2559620D01*
X2107680Y2554440D01*
X2110100Y2549560D01*
X2113120Y2545020D01*
X2116720Y2540920D01*
X2120820Y2537320D01*
X2125360Y2534300D01*
X2130240Y2531880D01*
X2135420Y2530140D01*
X2140760Y2529060D01*
X2146200Y2528720D01*
X2151840Y2529080D01*
X2157180Y2530140D01*
X2162360Y2531880D01*
X2167240Y2534300D01*
X2171780Y2537320D01*
X2175880Y2540920D01*
X2179480Y2545020D01*
X2182500Y2549560D01*
X2184920Y2554440D01*
X2186660Y2559620D01*
X2187740Y2564960D01*
X2188080Y2570400D01*
X2187740Y2575840D01*
X2187240Y2578320D01*
X2187260Y2580000D01*
X2187980Y2581540D01*
X2189280Y2582620D01*
X2190900Y2583080D01*
X2192580Y2582840D01*
X2193980Y2581920D01*
X2300280Y2475640D01*
X2301140Y2474340D01*
X2301440Y2472820D01*
X2301440Y2436700D01*
X2301800Y2431740D01*
X2302820Y2427020D01*
X2304520Y2422500D01*
X2306820Y2418260D01*
X2309720Y2414400D01*
X2313120Y2411000D01*
X2317000Y2408100D01*
X2321220Y2405800D01*
X2325740Y2404100D01*
X2330460Y2403080D01*
X2335280Y2402740D01*
X2340080Y2403080D01*
X2344800Y2404100D01*
X2349320Y2405800D01*
X2353560Y2408100D01*
X2357420Y2411000D01*
X2360820Y2414400D01*
X2363720Y2418260D01*
X2366020Y2422500D01*
X2367720Y2427020D01*
X2368740Y2431740D01*
X2369100Y2436700D01*
X2369100Y2487580D01*
X2368740Y2492540D01*
X2367720Y2497260D01*
X2366020Y2501780D01*
X2363720Y2506020D01*
X2360820Y2509880D01*
X2357420Y2513280D01*
X2353560Y2516180D01*
X2349320Y2518480D01*
X2344800Y2520180D01*
X2340080Y2521200D01*
X2335280Y2521540D01*
X2330460Y2521200D01*
X2325740Y2520180D01*
X2321220Y2518480D01*
X2317000Y2516180D01*
X2313120Y2513280D01*
X2312200Y2512360D01*
X2310900Y2511500D01*
X2309380Y2511180D01*
X2307840Y2511500D01*
X2306540Y2512360D01*
X2188900Y2630000D01*
X2186460Y2632020D01*
X2183840Y2633420D01*
X2180980Y2634280D01*
X2177820Y2634600D01*
X2114780Y2634600D01*
X2111620Y2634280D01*
X2108780Y2633420D01*
X2106140Y2632020D01*
X2103700Y2630000D01*
X1986040Y2512360D01*
X1984760Y2511480D01*
X1983220Y2511180D01*
X1981680Y2511480D01*
X1980400Y2512360D01*
X1979460Y2513280D01*
X1975600Y2516180D01*
X1971360Y2518480D01*
X1966840Y2520180D01*
X1962140Y2521200D01*
X1957320Y2521540D01*
X1952500Y2521200D01*
X1947800Y2520180D01*
X1943280Y2518480D01*
X1939040Y2516180D01*
X1935180Y2513280D01*
X1931759Y2509880D01*
X1928880Y2506020D01*
X1926560Y2501780D01*
X1924880Y2497260D01*
X1923860Y2492540D01*
X1923500Y2487580D01*
X1923500Y2436700D01*
X1923860Y2431740D01*
X1924880Y2427020D01*
X1926560Y2422500D01*
X1928880Y2418260D01*
X1931759Y2414400D01*
X1935180Y2411000D01*
X1939040Y2408100D01*
X1943280Y2405800D01*
X1947800Y2404100D01*
X1952500Y2403080D01*
G37*
G36*
X3384480Y2591480D02*
G01*
X3388200Y2591800D01*
X3391820Y2592780D01*
X3395220Y2594360D01*
X3398279Y2596500D01*
X3400920Y2599160D01*
X3403080Y2602220D01*
X3404660Y2605620D01*
X3405600Y2609160D01*
X3406400Y2610680D01*
X3407780Y2611740D01*
X3409480Y2612120D01*
X3411160Y2611740D01*
X3412540Y2610680D01*
X3413340Y2609160D01*
X3414280Y2605620D01*
X3415860Y2602220D01*
X3418020Y2599160D01*
X3420659Y2596500D01*
X3423720Y2594360D01*
X3427120Y2592780D01*
X3430740Y2591800D01*
X3434480Y2591480D01*
X3438200Y2591800D01*
X3441820Y2592780D01*
X3445220Y2594360D01*
X3448279Y2596500D01*
X3450920Y2599160D01*
X3453080Y2602220D01*
X3454660Y2605620D01*
X3455600Y2609160D01*
X3456400Y2610680D01*
X3457780Y2611740D01*
X3459480Y2612120D01*
X3461160Y2611740D01*
X3462540Y2610680D01*
X3463340Y2609160D01*
X3464280Y2605620D01*
X3465860Y2602220D01*
X3468020Y2599160D01*
X3470659Y2596500D01*
X3473720Y2594360D01*
X3477120Y2592780D01*
X3480740Y2591800D01*
X3484480Y2591480D01*
X3488200Y2591800D01*
X3491820Y2592780D01*
X3495220Y2594360D01*
X3498279Y2596500D01*
X3500920Y2599160D01*
X3503080Y2602220D01*
X3504660Y2605620D01*
X3505600Y2609160D01*
X3506400Y2610680D01*
X3507780Y2611740D01*
X3509480Y2612120D01*
X3511160Y2611740D01*
X3512540Y2610680D01*
X3513340Y2609160D01*
X3514280Y2605620D01*
X3515860Y2602220D01*
X3518020Y2599160D01*
X3520659Y2596500D01*
X3523720Y2594360D01*
X3527120Y2592780D01*
X3530740Y2591800D01*
X3534480Y2591480D01*
X3538200Y2591800D01*
X3541820Y2592780D01*
X3545220Y2594360D01*
X3548279Y2596500D01*
X3550920Y2599160D01*
X3553080Y2602220D01*
X3554660Y2605620D01*
X3555600Y2609160D01*
X3556400Y2610680D01*
X3557780Y2611740D01*
X3559480Y2612120D01*
X3561160Y2611740D01*
X3562540Y2610680D01*
X3563340Y2609160D01*
X3564280Y2605620D01*
X3565860Y2602220D01*
X3568020Y2599160D01*
X3570659Y2596500D01*
X3573720Y2594360D01*
X3577120Y2592780D01*
X3580740Y2591800D01*
X3584480Y2591480D01*
X3588200Y2591800D01*
X3591820Y2592780D01*
X3595220Y2594360D01*
X3598279Y2596500D01*
X3600920Y2599160D01*
X3603080Y2602220D01*
X3604660Y2605620D01*
X3605600Y2609160D01*
X3606400Y2610680D01*
X3607780Y2611740D01*
X3609480Y2612120D01*
X3611160Y2611740D01*
X3612540Y2610680D01*
X3613340Y2609160D01*
X3614280Y2605620D01*
X3615860Y2602220D01*
X3618020Y2599160D01*
X3620659Y2596500D01*
X3623720Y2594360D01*
X3627120Y2592780D01*
X3630740Y2591800D01*
X3634480Y2591480D01*
X3638200Y2591800D01*
X3641820Y2592780D01*
X3645220Y2594360D01*
X3648279Y2596500D01*
X3650920Y2599160D01*
X3653080Y2602220D01*
X3654660Y2605620D01*
X3655600Y2609160D01*
X3656400Y2610680D01*
X3657780Y2611740D01*
X3659480Y2612120D01*
X3661160Y2611740D01*
X3662540Y2610680D01*
X3663340Y2609160D01*
X3664280Y2605620D01*
X3665860Y2602220D01*
X3668020Y2599160D01*
X3670659Y2596500D01*
X3673720Y2594360D01*
X3677120Y2592780D01*
X3680740Y2591800D01*
X3684480Y2591480D01*
X3688200Y2591800D01*
X3691820Y2592780D01*
X3695220Y2594360D01*
X3698279Y2596500D01*
X3700920Y2599160D01*
X3703080Y2602220D01*
X3704660Y2605620D01*
X3705620Y2609240D01*
X3705960Y2613140D01*
X3705960Y2670419D01*
X3705620Y2674320D01*
X3704660Y2677940D01*
X3703080Y2681340D01*
X3700920Y2684400D01*
X3698279Y2687060D01*
X3695220Y2689200D01*
X3691820Y2690779D01*
X3688200Y2691760D01*
X3684480Y2692080D01*
X3680740Y2691760D01*
X3677120Y2690779D01*
X3673720Y2689200D01*
X3670659Y2687060D01*
X3668020Y2684400D01*
X3665860Y2681340D01*
X3664280Y2677940D01*
X3663340Y2674400D01*
X3662540Y2672880D01*
X3661160Y2671820D01*
X3659480Y2671440D01*
X3657780Y2671820D01*
X3656400Y2672880D01*
X3655600Y2674400D01*
X3654660Y2677940D01*
X3653080Y2681340D01*
X3650920Y2684400D01*
X3648279Y2687060D01*
X3645220Y2689200D01*
X3641820Y2690779D01*
X3638200Y2691760D01*
X3634480Y2692080D01*
X3630740Y2691760D01*
X3627120Y2690779D01*
X3623720Y2689200D01*
X3620659Y2687060D01*
X3618020Y2684400D01*
X3615860Y2681340D01*
X3614280Y2677940D01*
X3613340Y2674400D01*
X3612540Y2672880D01*
X3611160Y2671820D01*
X3609480Y2671440D01*
X3607780Y2671820D01*
X3606400Y2672880D01*
X3605600Y2674400D01*
X3604660Y2677940D01*
X3603080Y2681340D01*
X3600920Y2684400D01*
X3598279Y2687060D01*
X3595220Y2689200D01*
X3591820Y2690779D01*
X3588200Y2691760D01*
X3584480Y2692080D01*
X3580740Y2691760D01*
X3577120Y2690779D01*
X3573720Y2689200D01*
X3570659Y2687060D01*
X3568020Y2684400D01*
X3565860Y2681340D01*
X3564280Y2677940D01*
X3563340Y2674400D01*
X3562540Y2672880D01*
X3561160Y2671820D01*
X3559480Y2671440D01*
X3557780Y2671820D01*
X3556400Y2672880D01*
X3555600Y2674400D01*
X3554660Y2677940D01*
X3553080Y2681340D01*
X3550920Y2684400D01*
X3548279Y2687060D01*
X3545220Y2689200D01*
X3541820Y2690779D01*
X3538200Y2691760D01*
X3534480Y2692080D01*
X3530740Y2691760D01*
X3527120Y2690779D01*
X3523720Y2689200D01*
X3520659Y2687060D01*
X3518020Y2684400D01*
X3515860Y2681340D01*
X3514280Y2677940D01*
X3513340Y2674400D01*
X3512540Y2672880D01*
X3511160Y2671820D01*
X3509480Y2671440D01*
X3507780Y2671820D01*
X3506400Y2672880D01*
X3505600Y2674400D01*
X3504660Y2677940D01*
X3503080Y2681340D01*
X3500920Y2684400D01*
X3498279Y2687060D01*
X3495220Y2689200D01*
X3491820Y2690779D01*
X3488200Y2691760D01*
X3484480Y2692080D01*
X3480740Y2691760D01*
X3477120Y2690779D01*
X3473720Y2689200D01*
X3470659Y2687060D01*
X3468020Y2684400D01*
X3465860Y2681340D01*
X3464280Y2677940D01*
X3463340Y2674400D01*
X3462540Y2672880D01*
X3461160Y2671820D01*
X3459480Y2671440D01*
X3457780Y2671820D01*
X3456400Y2672880D01*
X3455600Y2674400D01*
X3454660Y2677940D01*
X3453080Y2681340D01*
X3450920Y2684400D01*
X3448279Y2687060D01*
X3445220Y2689200D01*
X3441820Y2690779D01*
X3438200Y2691760D01*
X3434480Y2692080D01*
X3430740Y2691760D01*
X3427120Y2690779D01*
X3423720Y2689200D01*
X3420659Y2687060D01*
X3418020Y2684400D01*
X3415860Y2681340D01*
X3414280Y2677940D01*
X3413340Y2674400D01*
X3412540Y2672880D01*
X3411160Y2671820D01*
X3409480Y2671440D01*
X3407780Y2671820D01*
X3406400Y2672880D01*
X3405600Y2674400D01*
X3404660Y2677940D01*
X3403080Y2681340D01*
X3400920Y2684400D01*
X3398279Y2687060D01*
X3395220Y2689200D01*
X3391820Y2690779D01*
X3388200Y2691760D01*
X3384480Y2692080D01*
X3380740Y2691760D01*
X3377120Y2690779D01*
X3373720Y2689200D01*
X3370659Y2687060D01*
X3368020Y2684400D01*
X3365860Y2681340D01*
X3364280Y2677940D01*
X3363320Y2674320D01*
X3362980Y2670419D01*
X3362980Y2613140D01*
X3363320Y2609240D01*
X3364280Y2605620D01*
X3365860Y2602220D01*
X3368020Y2599160D01*
X3370659Y2596500D01*
X3373720Y2594360D01*
X3377120Y2592780D01*
X3380740Y2591800D01*
G37*
G36*
X2619620Y2609040D02*
G01*
X2624940Y2609040D01*
X2630200Y2609740D01*
X2635299Y2611139D01*
X2640200Y2613220D01*
X2644760Y2615920D01*
X2648920Y2619220D01*
X2652620Y2623020D01*
X2655760Y2627300D01*
X2658300Y2631960D01*
X2660220Y2636900D01*
X2661440Y2642060D01*
X2661980Y2647340D01*
X2661800Y2652640D01*
X2660920Y2657880D01*
X2659340Y2662940D01*
X2657120Y2667760D01*
X2654260Y2672240D01*
X2650840Y2676280D01*
X2646900Y2679840D01*
X2642520Y2682840D01*
X2637780Y2685240D01*
X2632780Y2686980D01*
X2627580Y2688039D01*
X2622280Y2688380D01*
X2616980Y2688039D01*
X2611780Y2686980D01*
X2606780Y2685240D01*
X2602040Y2682840D01*
X2597660Y2679840D01*
X2593720Y2676280D01*
X2590299Y2672240D01*
X2587440Y2667760D01*
X2585220Y2662940D01*
X2583639Y2657880D01*
X2582760Y2652640D01*
X2582580Y2647340D01*
X2583120Y2642060D01*
X2584340Y2636900D01*
X2586259Y2631960D01*
X2588800Y2627300D01*
X2591940Y2623020D01*
X2595640Y2619220D01*
X2599800Y2615920D01*
X2604360Y2613220D01*
X2609260Y2611139D01*
X2614360Y2609740D01*
G37*
G36*
X2519620Y2609040D02*
G01*
X2524940Y2609040D01*
X2530200Y2609740D01*
X2535300Y2611139D01*
X2540200Y2613220D01*
X2544760Y2615920D01*
X2548920Y2619220D01*
X2552620Y2623020D01*
X2555760Y2627300D01*
X2558300Y2631960D01*
X2560220Y2636900D01*
X2561440Y2642060D01*
X2561980Y2647340D01*
X2561800Y2652640D01*
X2560920Y2657880D01*
X2559760Y2661620D01*
X2559580Y2663060D01*
X2559920Y2664460D01*
X2560740Y2665640D01*
X2652919Y2757820D01*
X2654220Y2758680D01*
X2655760Y2759000D01*
X3011680Y2759000D01*
X3014840Y2759300D01*
X3017700Y2760160D01*
X3020320Y2761560D01*
X3022760Y2763580D01*
X3233399Y2974220D01*
X3234540Y2975020D01*
X3235880Y2975380D01*
X3239040Y2975659D01*
X3242780Y2976660D01*
X3246280Y2978279D01*
X3249460Y2980500D01*
X3250080Y2981120D01*
X3251380Y2982000D01*
X3252900Y2982300D01*
X3556100Y2982300D01*
X3557640Y2982000D01*
X3558940Y2981120D01*
X3658880Y2881180D01*
X3661340Y2879160D01*
X3663960Y2877760D01*
X3666800Y2876900D01*
X3669960Y2876600D01*
X4585220Y2876600D01*
X4588380Y2876900D01*
X4591240Y2877760D01*
X4593860Y2879160D01*
X4596160Y2881060D01*
X4598100Y2883420D01*
X4599500Y2886040D01*
X4600780Y2890440D01*
X4601680Y2891600D01*
X4602920Y2892380D01*
X4604360Y2892640D01*
X4605920Y2892640D01*
X4608400Y2892919D01*
X4610560Y2893680D01*
X4612480Y2894900D01*
X4614100Y2896500D01*
X4615300Y2898440D01*
X4616060Y2900580D01*
X4616340Y2903060D01*
X4616340Y2974280D01*
X4616060Y2976760D01*
X4615300Y2978900D01*
X4614100Y2980840D01*
X4612480Y2982440D01*
X4610560Y2983660D01*
X4608400Y2984420D01*
X4605920Y2984700D01*
X4565020Y2984700D01*
X4562540Y2984420D01*
X4560380Y2983660D01*
X4558460Y2982440D01*
X4556840Y2980840D01*
X4555640Y2978900D01*
X4554880Y2976760D01*
X4554600Y2974280D01*
X4554600Y2911000D01*
X4554300Y2909460D01*
X4553420Y2908159D01*
X4552140Y2907300D01*
X4550600Y2907000D01*
X3677720Y2907000D01*
X3676200Y2907300D01*
X3674900Y2908159D01*
X3574940Y3008120D01*
X3572500Y3010120D01*
X3569880Y3011520D01*
X3567020Y3012380D01*
X3563860Y3012700D01*
X3252900Y3012700D01*
X3251360Y3013000D01*
X3250080Y3013880D01*
X3249460Y3014500D01*
X3246280Y3016720D01*
X3242780Y3018340D01*
X3239040Y3019340D01*
X3235200Y3019680D01*
X3231340Y3019340D01*
X3227600Y3018340D01*
X3224100Y3016720D01*
X3220920Y3014500D01*
X3218200Y3011760D01*
X3215980Y3008600D01*
X3214340Y3005080D01*
X3213340Y3001360D01*
X3213060Y2998200D01*
X3212700Y2996860D01*
X3211900Y2995720D01*
X3006760Y2790560D01*
X3005460Y2789700D01*
X3003920Y2789400D01*
X2648000Y2789400D01*
X2644840Y2789080D01*
X2642000Y2788220D01*
X2639360Y2786820D01*
X2636920Y2784800D01*
X2539240Y2687120D01*
X2538000Y2686280D01*
X2536560Y2685960D01*
X2535100Y2686180D01*
X2532780Y2686980D01*
X2527580Y2688039D01*
X2522280Y2688380D01*
X2516980Y2688039D01*
X2511780Y2686980D01*
X2506780Y2685240D01*
X2502040Y2682840D01*
X2497660Y2679840D01*
X2493720Y2676280D01*
X2490300Y2672240D01*
X2487440Y2667760D01*
X2485220Y2662940D01*
X2483640Y2657880D01*
X2482760Y2652640D01*
X2482580Y2647340D01*
X2483120Y2642060D01*
X2484340Y2636900D01*
X2486260Y2631960D01*
X2488800Y2627300D01*
X2491940Y2623020D01*
X2495640Y2619220D01*
X2499800Y2615920D01*
X2504360Y2613220D01*
X2509260Y2611139D01*
X2514360Y2609740D01*
G37*
G36*
X2835260Y2966720D02*
G01*
X2841220Y2967080D01*
X2847120Y2968159D01*
X2852820Y2969940D01*
X2858279Y2972400D01*
X2863399Y2975500D01*
X2868120Y2979180D01*
X2872340Y2983420D01*
X2876040Y2988120D01*
X2879140Y2993240D01*
X2881600Y2998700D01*
X2883380Y3004420D01*
X2884460Y3010299D01*
X2884820Y3016280D01*
X2884460Y3022260D01*
X2883380Y3028140D01*
X2881600Y3033860D01*
X2879140Y3039320D01*
X2876040Y3044440D01*
X2872340Y3049140D01*
X2868120Y3053380D01*
X2863399Y3057060D01*
X2858279Y3060160D01*
X2852820Y3062620D01*
X2847120Y3064400D01*
X2841220Y3065480D01*
X2835260Y3065840D01*
X2829280Y3065480D01*
X2823380Y3064400D01*
X2817679Y3062620D01*
X2812220Y3060160D01*
X2807100Y3057060D01*
X2802380Y3053380D01*
X2798159Y3049140D01*
X2794460Y3044440D01*
X2791360Y3039320D01*
X2788900Y3033860D01*
X2787120Y3028140D01*
X2786040Y3022260D01*
X2785680Y3016280D01*
X2786040Y3010299D01*
X2787120Y3004420D01*
X2788900Y2998700D01*
X2791360Y2993240D01*
X2794460Y2988120D01*
X2798159Y2983420D01*
X2802380Y2979180D01*
X2807100Y2975500D01*
X2812220Y2972400D01*
X2817679Y2969940D01*
X2823380Y2968159D01*
X2829280Y2967080D01*
G37*
G36*
X2638460Y2966720D02*
G01*
X2644420Y2967080D01*
X2650320Y2968159D01*
X2656019Y2969940D01*
X2661480Y2972400D01*
X2666600Y2975500D01*
X2671320Y2979180D01*
X2675539Y2983420D01*
X2679240Y2988120D01*
X2682340Y2993240D01*
X2684800Y2998700D01*
X2686580Y3004420D01*
X2687660Y3010299D01*
X2688020Y3016280D01*
X2687660Y3022260D01*
X2686580Y3028140D01*
X2684800Y3033860D01*
X2682340Y3039320D01*
X2679240Y3044440D01*
X2675539Y3049140D01*
X2671320Y3053380D01*
X2666600Y3057060D01*
X2661480Y3060160D01*
X2656019Y3062620D01*
X2650320Y3064400D01*
X2644420Y3065480D01*
X2638460Y3065840D01*
X2632480Y3065480D01*
X2626580Y3064400D01*
X2620880Y3062620D01*
X2615419Y3060160D01*
X2610299Y3057060D01*
X2605580Y3053380D01*
X2601360Y3049140D01*
X2597660Y3044440D01*
X2594560Y3039320D01*
X2592100Y3033860D01*
X2590320Y3028140D01*
X2589240Y3022260D01*
X2588880Y3016280D01*
X2589240Y3010299D01*
X2590320Y3004420D01*
X2592100Y2998700D01*
X2594560Y2993240D01*
X2597660Y2988120D01*
X2601360Y2983420D01*
X2605580Y2979180D01*
X2610299Y2975500D01*
X2615419Y2972400D01*
X2620880Y2969940D01*
X2626580Y2968159D01*
X2632480Y2967080D01*
G37*
G36*
X3032160Y2966720D02*
G01*
X3038120Y2967080D01*
X3044020Y2968159D01*
X3049720Y2969940D01*
X3055179Y2972400D01*
X3060299Y2975500D01*
X3065020Y2979180D01*
X3069240Y2983420D01*
X3072940Y2988120D01*
X3076040Y2993240D01*
X3078500Y2998700D01*
X3080280Y3004420D01*
X3081360Y3010299D01*
X3081720Y3016280D01*
X3081360Y3022260D01*
X3080280Y3028140D01*
X3078500Y3033860D01*
X3076040Y3039320D01*
X3072940Y3044440D01*
X3069240Y3049140D01*
X3065020Y3053380D01*
X3060299Y3057060D01*
X3055179Y3060160D01*
X3049720Y3062620D01*
X3044020Y3064400D01*
X3038120Y3065480D01*
X3032160Y3065840D01*
X3026180Y3065480D01*
X3020280Y3064400D01*
X3014580Y3062620D01*
X3009120Y3060160D01*
X3004000Y3057060D01*
X2999280Y3053380D01*
X2995059Y3049140D01*
X2991360Y3044440D01*
X2988260Y3039320D01*
X2985800Y3033860D01*
X2984020Y3028140D01*
X2982940Y3022260D01*
X2982580Y3016280D01*
X2982940Y3010299D01*
X2984020Y3004420D01*
X2985800Y2998700D01*
X2988260Y2993240D01*
X2991360Y2988120D01*
X2995059Y2983420D01*
X2999280Y2979180D01*
X3004000Y2975500D01*
X3009120Y2972400D01*
X3014580Y2969940D01*
X3020280Y2968159D01*
X3026180Y2967080D01*
G37*
G36*
X2244760Y2966720D02*
G01*
X2250720Y2967080D01*
X2256620Y2968159D01*
X2262320Y2969940D01*
X2267780Y2972400D01*
X2272900Y2975500D01*
X2277620Y2979180D01*
X2281840Y2983420D01*
X2285540Y2988120D01*
X2288640Y2993240D01*
X2291100Y2998700D01*
X2292880Y3004420D01*
X2293960Y3010299D01*
X2294320Y3016280D01*
X2293960Y3022260D01*
X2292880Y3028140D01*
X2291100Y3033860D01*
X2288640Y3039320D01*
X2285540Y3044440D01*
X2281840Y3049140D01*
X2277620Y3053380D01*
X2272900Y3057060D01*
X2267780Y3060160D01*
X2262320Y3062620D01*
X2256620Y3064400D01*
X2250720Y3065480D01*
X2244760Y3065840D01*
X2238780Y3065480D01*
X2232880Y3064400D01*
X2227180Y3062620D01*
X2221720Y3060160D01*
X2216600Y3057060D01*
X2211880Y3053380D01*
X2207660Y3049140D01*
X2203960Y3044440D01*
X2200860Y3039320D01*
X2198400Y3033860D01*
X2196620Y3028140D01*
X2195540Y3022260D01*
X2195180Y3016280D01*
X2195540Y3010299D01*
X2196620Y3004420D01*
X2198400Y2998700D01*
X2200860Y2993240D01*
X2203960Y2988120D01*
X2207660Y2983420D01*
X2211880Y2979180D01*
X2216600Y2975500D01*
X2221720Y2972400D01*
X2227180Y2969940D01*
X2232880Y2968159D01*
X2238780Y2967080D01*
G37*
G36*
X2047860Y2966720D02*
G01*
X2053820Y2967080D01*
X2059720Y2968159D01*
X2065420Y2969940D01*
X2070880Y2972400D01*
X2076000Y2975500D01*
X2080720Y2979180D01*
X2084940Y2983420D01*
X2088640Y2988120D01*
X2091740Y2993240D01*
X2094199Y2998700D01*
X2095980Y3004420D01*
X2097060Y3010299D01*
X2097420Y3016280D01*
X2097060Y3022260D01*
X2095980Y3028140D01*
X2094199Y3033860D01*
X2091740Y3039320D01*
X2088640Y3044440D01*
X2084940Y3049140D01*
X2080720Y3053380D01*
X2076000Y3057060D01*
X2070880Y3060160D01*
X2065420Y3062620D01*
X2059720Y3064400D01*
X2053820Y3065480D01*
X2047860Y3065840D01*
X2041879Y3065480D01*
X2035980Y3064400D01*
X2030280Y3062620D01*
X2024820Y3060160D01*
X2019700Y3057060D01*
X2014980Y3053380D01*
X2010760Y3049140D01*
X2007060Y3044440D01*
X2003959Y3039320D01*
X2001500Y3033860D01*
X1999720Y3028140D01*
X1998640Y3022260D01*
X1998280Y3016280D01*
X1998640Y3010299D01*
X1999720Y3004420D01*
X2001500Y2998700D01*
X2003959Y2993240D01*
X2007060Y2988120D01*
X2010760Y2983420D01*
X2014980Y2979180D01*
X2019700Y2975500D01*
X2024820Y2972400D01*
X2030280Y2969940D01*
X2035980Y2968159D01*
X2041879Y2967080D01*
G37*
G36*
X2441560Y2966720D02*
G01*
X2447520Y2967080D01*
X2453420Y2968159D01*
X2459120Y2969940D01*
X2464580Y2972400D01*
X2469700Y2975500D01*
X2474420Y2979180D01*
X2478640Y2983420D01*
X2482340Y2988120D01*
X2485440Y2993240D01*
X2487900Y2998700D01*
X2489680Y3004420D01*
X2490760Y3010299D01*
X2491120Y3016280D01*
X2490760Y3022260D01*
X2489680Y3028140D01*
X2487900Y3033860D01*
X2485440Y3039320D01*
X2482340Y3044440D01*
X2478640Y3049140D01*
X2474420Y3053380D01*
X2469700Y3057060D01*
X2464580Y3060160D01*
X2459120Y3062620D01*
X2453420Y3064400D01*
X2447520Y3065480D01*
X2441560Y3065840D01*
X2435580Y3065480D01*
X2429680Y3064400D01*
X2423980Y3062620D01*
X2418520Y3060160D01*
X2413400Y3057060D01*
X2408680Y3053380D01*
X2404460Y3049140D01*
X2400760Y3044440D01*
X2397660Y3039320D01*
X2395200Y3033860D01*
X2393420Y3028140D01*
X2392340Y3022260D01*
X2391980Y3016280D01*
X2392340Y3010299D01*
X2393420Y3004420D01*
X2395200Y2998700D01*
X2397660Y2993240D01*
X2400760Y2988120D01*
X2404460Y2983420D01*
X2408680Y2979180D01*
X2413400Y2975500D01*
X2418520Y2972400D01*
X2423980Y2969940D01*
X2429680Y2968159D01*
X2435580Y2967080D01*
G37*
G36*
X3342200Y3223519D02*
G01*
X3357500Y3223519D01*
X3359980Y3223800D01*
X3362140Y3224540D01*
X3363480Y3225380D01*
X3364860Y3225920D01*
X3366340Y3225920D01*
X3367720Y3225380D01*
X3369060Y3224540D01*
X3371220Y3223800D01*
X3373700Y3223519D01*
X3389000Y3223519D01*
X3391480Y3223800D01*
X3393620Y3224540D01*
X3395560Y3225760D01*
X3397160Y3227360D01*
X3398380Y3229300D01*
X3399140Y3231440D01*
X3399420Y3233940D01*
X3399420Y3264980D01*
X3399140Y3267480D01*
X3398380Y3269620D01*
X3397160Y3271560D01*
X3395560Y3273159D01*
X3393620Y3274380D01*
X3391480Y3275140D01*
X3389000Y3275419D01*
X3373700Y3275419D01*
X3371220Y3275140D01*
X3369060Y3274380D01*
X3367720Y3273540D01*
X3366340Y3273000D01*
X3364860Y3273000D01*
X3363480Y3273540D01*
X3362140Y3274380D01*
X3359980Y3275140D01*
X3357500Y3275419D01*
X3342200Y3275419D01*
X3339720Y3275140D01*
X3337559Y3274380D01*
X3335640Y3273159D01*
X3334020Y3271560D01*
X3332799Y3269620D01*
X3332060Y3267480D01*
X3331780Y3264980D01*
X3331780Y3233940D01*
X3332060Y3231440D01*
X3332799Y3229300D01*
X3334020Y3227360D01*
X3335640Y3225760D01*
X3337559Y3224540D01*
X3339720Y3223800D01*
G37*
G36*
X3436680Y3223519D02*
G01*
X3452000Y3223519D01*
X3454480Y3223800D01*
X3456620Y3224540D01*
X3457960Y3225380D01*
X3459340Y3225920D01*
X3460820Y3225920D01*
X3462220Y3225380D01*
X3463540Y3224540D01*
X3465700Y3223800D01*
X3468180Y3223519D01*
X3483480Y3223519D01*
X3485960Y3223800D01*
X3488120Y3224540D01*
X3489460Y3225380D01*
X3490840Y3225920D01*
X3492320Y3225920D01*
X3493700Y3225380D01*
X3495040Y3224540D01*
X3497200Y3223800D01*
X3499680Y3223519D01*
X3514980Y3223519D01*
X3517460Y3223800D01*
X3519620Y3224540D01*
X3520960Y3225380D01*
X3522340Y3225920D01*
X3523820Y3225920D01*
X3525200Y3225380D01*
X3526540Y3224540D01*
X3528700Y3223800D01*
X3531180Y3223519D01*
X3546480Y3223519D01*
X3548960Y3223800D01*
X3551100Y3224540D01*
X3552440Y3225380D01*
X3553820Y3225920D01*
X3555320Y3225920D01*
X3556700Y3225380D01*
X3558039Y3224540D01*
X3560179Y3223800D01*
X3562660Y3223519D01*
X3577980Y3223519D01*
X3580460Y3223800D01*
X3582600Y3224540D01*
X3583940Y3225380D01*
X3585320Y3225920D01*
X3586820Y3225920D01*
X3588200Y3225380D01*
X3589540Y3224540D01*
X3591680Y3223800D01*
X3594160Y3223519D01*
X3609480Y3223519D01*
X3611960Y3223800D01*
X3614100Y3224540D01*
X3615440Y3225380D01*
X3616820Y3225920D01*
X3618300Y3225920D01*
X3619700Y3225380D01*
X3621019Y3224540D01*
X3623180Y3223800D01*
X3625659Y3223519D01*
X3640960Y3223519D01*
X3643440Y3223800D01*
X3645600Y3224540D01*
X3646940Y3225380D01*
X3648320Y3225920D01*
X3649800Y3225920D01*
X3651180Y3225380D01*
X3652520Y3224540D01*
X3654680Y3223800D01*
X3657160Y3223519D01*
X3672460Y3223519D01*
X3674940Y3223800D01*
X3677100Y3224540D01*
X3678440Y3225380D01*
X3679820Y3225920D01*
X3681300Y3225920D01*
X3682679Y3225380D01*
X3684020Y3224540D01*
X3686180Y3223800D01*
X3688660Y3223519D01*
X3703960Y3223519D01*
X3706440Y3223800D01*
X3708580Y3224540D01*
X3709920Y3225380D01*
X3711300Y3225920D01*
X3712799Y3225920D01*
X3714180Y3225380D01*
X3715520Y3224540D01*
X3717660Y3223800D01*
X3720140Y3223519D01*
X3735460Y3223519D01*
X3737940Y3223800D01*
X3740080Y3224540D01*
X3742020Y3225760D01*
X3743620Y3227360D01*
X3744840Y3229300D01*
X3745600Y3231440D01*
X3745880Y3233940D01*
X3745880Y3263260D01*
X3746180Y3264800D01*
X3747040Y3266100D01*
X3747580Y3266620D01*
X3748820Y3267460D01*
X3750260Y3267799D01*
X3751740Y3267580D01*
X3753100Y3267100D01*
X3755580Y3266820D01*
X3786640Y3266820D01*
X3789120Y3267100D01*
X3791280Y3267840D01*
X3793240Y3269080D01*
X3794260Y3269540D01*
X3795360Y3269700D01*
X3797679Y3269700D01*
X3800840Y3270000D01*
X3803680Y3270860D01*
X3806300Y3272260D01*
X3808600Y3274160D01*
X3810580Y3276540D01*
X3811980Y3279160D01*
X3812840Y3282000D01*
X3813159Y3285160D01*
X3813159Y3370320D01*
X3812840Y3373480D01*
X3812540Y3375080D01*
X3812760Y3376420D01*
X3813080Y3379580D01*
X3813080Y3397300D01*
X3812760Y3400460D01*
X3812000Y3402980D01*
X3811820Y3404140D01*
X3812000Y3405299D01*
X3812820Y3407960D01*
X3813120Y3411120D01*
X3813120Y3501139D01*
X3812820Y3504300D01*
X3811940Y3507140D01*
X3810539Y3509760D01*
X3810000Y3510419D01*
X3809320Y3511620D01*
X3809100Y3512960D01*
X3809100Y3525280D01*
X3809320Y3526640D01*
X3810500Y3528420D01*
X3811900Y3531060D01*
X3812760Y3533900D01*
X3813080Y3537060D01*
X3813080Y3554780D01*
X3812760Y3557940D01*
X3811980Y3560500D01*
X3811800Y3561680D01*
X3811980Y3562840D01*
X3812760Y3565400D01*
X3813080Y3568560D01*
X3813080Y3599660D01*
X3812760Y3602820D01*
X3811900Y3605659D01*
X3810500Y3608279D01*
X3808600Y3610580D01*
X3806300Y3612480D01*
X3803680Y3613880D01*
X3800840Y3614740D01*
X3797679Y3615059D01*
X3795360Y3615059D01*
X3794240Y3615200D01*
X3793220Y3615659D01*
X3791280Y3616900D01*
X3789120Y3617640D01*
X3786640Y3617919D01*
X3755580Y3617919D01*
X3753100Y3617640D01*
X3750940Y3616900D01*
X3749020Y3615680D01*
X3747400Y3614060D01*
X3746200Y3612140D01*
X3745440Y3609980D01*
X3745160Y3607500D01*
X3745160Y3592200D01*
X3745440Y3589720D01*
X3746200Y3587559D01*
X3747020Y3586240D01*
X3747580Y3584840D01*
X3747580Y3583360D01*
X3747020Y3581980D01*
X3746200Y3580640D01*
X3745440Y3578500D01*
X3745160Y3576019D01*
X3745160Y3560700D01*
X3745440Y3558220D01*
X3746200Y3556080D01*
X3747040Y3554740D01*
X3747580Y3553360D01*
X3747580Y3551860D01*
X3747040Y3550480D01*
X3746200Y3549140D01*
X3745440Y3547000D01*
X3745160Y3544520D01*
X3745160Y3529200D01*
X3745440Y3526720D01*
X3746200Y3524580D01*
X3747040Y3523240D01*
X3747580Y3521860D01*
X3747580Y3520360D01*
X3747040Y3518980D01*
X3746200Y3517640D01*
X3745440Y3515500D01*
X3745160Y3513020D01*
X3745160Y3497700D01*
X3745440Y3495220D01*
X3746200Y3493080D01*
X3747020Y3491740D01*
X3747580Y3490360D01*
X3747580Y3488880D01*
X3747020Y3487480D01*
X3746200Y3486160D01*
X3745440Y3484000D01*
X3745160Y3481520D01*
X3745160Y3466220D01*
X3745440Y3463740D01*
X3746200Y3461580D01*
X3747040Y3460240D01*
X3747580Y3458860D01*
X3747580Y3457380D01*
X3747040Y3456000D01*
X3746200Y3454660D01*
X3745440Y3452500D01*
X3745160Y3450020D01*
X3745160Y3434720D01*
X3745440Y3432240D01*
X3746200Y3430080D01*
X3747020Y3428759D01*
X3747580Y3427360D01*
X3747580Y3425880D01*
X3747020Y3424500D01*
X3746200Y3423159D01*
X3745440Y3421019D01*
X3745160Y3418540D01*
X3745160Y3403220D01*
X3745440Y3400740D01*
X3746200Y3398600D01*
X3747040Y3397260D01*
X3747580Y3395880D01*
X3747580Y3394380D01*
X3747040Y3393000D01*
X3746200Y3391660D01*
X3745440Y3389520D01*
X3745160Y3387040D01*
X3745160Y3371720D01*
X3745440Y3369240D01*
X3746200Y3367100D01*
X3747400Y3365160D01*
X3749020Y3363560D01*
X3750940Y3362340D01*
X3753100Y3361580D01*
X3755580Y3361300D01*
X3778759Y3361300D01*
X3780280Y3361000D01*
X3781580Y3360140D01*
X3782440Y3358840D01*
X3782760Y3357300D01*
X3782760Y3338460D01*
X3782440Y3336940D01*
X3781580Y3335640D01*
X3780280Y3334760D01*
X3778759Y3334460D01*
X3755580Y3334460D01*
X3753100Y3334180D01*
X3750940Y3333440D01*
X3749020Y3332220D01*
X3747400Y3330600D01*
X3746200Y3328680D01*
X3745440Y3326520D01*
X3745160Y3324040D01*
X3745160Y3308740D01*
X3745440Y3306259D01*
X3745820Y3305179D01*
X3746040Y3303759D01*
X3745740Y3302360D01*
X3744960Y3301139D01*
X3743820Y3300280D01*
X3742440Y3299880D01*
X3741380Y3299780D01*
X3738540Y3298920D01*
X3735920Y3297520D01*
X3733460Y3295500D01*
X3730580Y3292640D01*
X3729280Y3291780D01*
X3727760Y3291480D01*
X3452240Y3291480D01*
X3450720Y3291780D01*
X3449420Y3292640D01*
X3415059Y3327000D01*
X3412600Y3329020D01*
X3409980Y3330419D01*
X3407140Y3331280D01*
X3403980Y3331600D01*
X3352520Y3331600D01*
X3350980Y3331900D01*
X3349680Y3332760D01*
X3348820Y3334060D01*
X3348519Y3335600D01*
X3348560Y3505120D01*
X3348260Y3508279D01*
X3347380Y3511120D01*
X3345980Y3513740D01*
X3344100Y3516040D01*
X3341740Y3517980D01*
X3339120Y3519380D01*
X3336280Y3520240D01*
X3333120Y3520560D01*
X3330800Y3520560D01*
X3329680Y3520720D01*
X3328660Y3521180D01*
X3326720Y3522400D01*
X3324560Y3523159D01*
X3322080Y3523440D01*
X3291019Y3523440D01*
X3288540Y3523159D01*
X3286380Y3522400D01*
X3284460Y3521180D01*
X3282840Y3519580D01*
X3281640Y3517640D01*
X3280880Y3515500D01*
X3280600Y3513020D01*
X3280600Y3497700D01*
X3280880Y3495220D01*
X3281640Y3493080D01*
X3282460Y3491740D01*
X3283020Y3490360D01*
X3283020Y3488880D01*
X3282460Y3487480D01*
X3281640Y3486160D01*
X3280880Y3484000D01*
X3280600Y3481520D01*
X3280600Y3466220D01*
X3280880Y3463740D01*
X3281640Y3461580D01*
X3282480Y3460240D01*
X3283020Y3458860D01*
X3283020Y3457380D01*
X3282480Y3456000D01*
X3281640Y3454660D01*
X3280880Y3452500D01*
X3280600Y3450020D01*
X3280600Y3434720D01*
X3280880Y3432240D01*
X3281640Y3430080D01*
X3282460Y3428759D01*
X3283020Y3427360D01*
X3283020Y3425880D01*
X3282460Y3424500D01*
X3281640Y3423159D01*
X3280880Y3421019D01*
X3280600Y3418540D01*
X3280600Y3403220D01*
X3280880Y3400740D01*
X3281640Y3398600D01*
X3282480Y3397260D01*
X3283020Y3395880D01*
X3283020Y3394380D01*
X3282480Y3393000D01*
X3281640Y3391660D01*
X3280880Y3389520D01*
X3280600Y3387040D01*
X3280600Y3371720D01*
X3280880Y3369240D01*
X3281640Y3367100D01*
X3282480Y3365760D01*
X3283020Y3364380D01*
X3283020Y3362880D01*
X3282480Y3361500D01*
X3281640Y3360160D01*
X3280880Y3358020D01*
X3280600Y3355539D01*
X3280600Y3340220D01*
X3280880Y3337740D01*
X3281640Y3335600D01*
X3282460Y3334260D01*
X3283020Y3332880D01*
X3283020Y3331400D01*
X3282460Y3330000D01*
X3281640Y3328680D01*
X3280880Y3326520D01*
X3280600Y3324040D01*
X3280600Y3308740D01*
X3280880Y3306259D01*
X3281640Y3304100D01*
X3282840Y3302180D01*
X3284460Y3300560D01*
X3286380Y3299340D01*
X3288540Y3298600D01*
X3291019Y3298320D01*
X3322080Y3298320D01*
X3324560Y3298600D01*
X3326720Y3299340D01*
X3328680Y3300580D01*
X3329700Y3301040D01*
X3330800Y3301200D01*
X3396220Y3301200D01*
X3397740Y3300880D01*
X3399040Y3300020D01*
X3426080Y3273000D01*
X3426920Y3271760D01*
X3427240Y3270320D01*
X3427020Y3268840D01*
X3426540Y3267480D01*
X3426259Y3264980D01*
X3426259Y3233940D01*
X3426540Y3231440D01*
X3427300Y3229300D01*
X3428519Y3227360D01*
X3430120Y3225760D01*
X3432060Y3224540D01*
X3434200Y3223800D01*
G37*
G36*
X4144900Y3250040D02*
G01*
X4150500Y3250220D01*
X4156019Y3251100D01*
X4161380Y3252700D01*
X4166500Y3254960D01*
X4171280Y3257860D01*
X4175659Y3261360D01*
X4179540Y3265380D01*
X4182880Y3269860D01*
X4185640Y3274720D01*
X4187740Y3279920D01*
X4189160Y3285320D01*
X4189860Y3290880D01*
X4189860Y3296460D01*
X4189160Y3302020D01*
X4187740Y3307420D01*
X4185640Y3312620D01*
X4182880Y3317480D01*
X4179540Y3321960D01*
X4175659Y3325980D01*
X4171280Y3329480D01*
X4166500Y3332380D01*
X4161380Y3334640D01*
X4156019Y3336240D01*
X4150500Y3337120D01*
X4144900Y3337300D01*
X4139340Y3336760D01*
X4133880Y3335520D01*
X4128620Y3333580D01*
X4123660Y3331000D01*
X4119080Y3327799D01*
X4114940Y3324040D01*
X4111320Y3319780D01*
X4108260Y3315100D01*
X4105840Y3310059D01*
X4104080Y3304740D01*
X4103000Y3299260D01*
X4102640Y3293660D01*
X4103000Y3288080D01*
X4104080Y3282600D01*
X4105840Y3277280D01*
X4108260Y3272240D01*
X4111320Y3267559D01*
X4114940Y3263300D01*
X4119080Y3259540D01*
X4123660Y3256340D01*
X4128620Y3253759D01*
X4133880Y3251820D01*
X4139340Y3250580D01*
G37*
G36*
X4046480Y3250040D02*
G01*
X4052060Y3250220D01*
X4057580Y3251100D01*
X4062940Y3252700D01*
X4068060Y3254960D01*
X4072840Y3257860D01*
X4077220Y3261360D01*
X4081120Y3265380D01*
X4084460Y3269860D01*
X4087200Y3274720D01*
X4089300Y3279920D01*
X4090720Y3285320D01*
X4091440Y3290880D01*
X4091440Y3296460D01*
X4090720Y3302020D01*
X4089300Y3307420D01*
X4088519Y3309360D01*
X4088220Y3310899D01*
X4088540Y3312420D01*
X4089400Y3313700D01*
X4213540Y3437840D01*
X4214840Y3438720D01*
X4216380Y3439020D01*
X4542720Y3439020D01*
X4545880Y3439340D01*
X4548720Y3440200D01*
X4551340Y3441600D01*
X4553800Y3443620D01*
X4681620Y3571420D01*
X4683620Y3573880D01*
X4685020Y3576500D01*
X4685900Y3579340D01*
X4686200Y3582500D01*
X4686200Y3759200D01*
X4686500Y3760720D01*
X4687380Y3762020D01*
X4688680Y3762880D01*
X4690200Y3763200D01*
X4700000Y3763200D01*
X4702500Y3763480D01*
X4704640Y3764220D01*
X4706580Y3765440D01*
X4708180Y3767060D01*
X4709400Y3768980D01*
X4710160Y3771139D01*
X4710440Y3773620D01*
X4710440Y3883720D01*
X4710160Y3886200D01*
X4709400Y3888360D01*
X4708180Y3890280D01*
X4706580Y3891900D01*
X4704640Y3893120D01*
X4702500Y3893860D01*
X4700000Y3894140D01*
X4642000Y3894140D01*
X4639500Y3893860D01*
X4637360Y3893120D01*
X4635420Y3891900D01*
X4633820Y3890280D01*
X4632600Y3888360D01*
X4631840Y3886200D01*
X4631560Y3883720D01*
X4631560Y3773620D01*
X4631840Y3771139D01*
X4632600Y3768980D01*
X4633820Y3767060D01*
X4635420Y3765440D01*
X4637360Y3764220D01*
X4639500Y3763480D01*
X4642000Y3763200D01*
X4651800Y3763200D01*
X4653340Y3762880D01*
X4654620Y3762020D01*
X4655500Y3760720D01*
X4655800Y3759200D01*
X4655800Y3590260D01*
X4655500Y3588740D01*
X4654620Y3587440D01*
X4537780Y3470600D01*
X4536480Y3469720D01*
X4534960Y3469420D01*
X4208620Y3469420D01*
X4205460Y3469100D01*
X4202620Y3468240D01*
X4199980Y3466840D01*
X4197540Y3464840D01*
X4067940Y3335240D01*
X4066600Y3334360D01*
X4065040Y3334060D01*
X4057580Y3336240D01*
X4052060Y3337120D01*
X4046480Y3337300D01*
X4040899Y3336760D01*
X4035440Y3335520D01*
X4030200Y3333580D01*
X4025240Y3331000D01*
X4020659Y3327799D01*
X4016500Y3324040D01*
X4012880Y3319780D01*
X4009840Y3315100D01*
X4007400Y3310059D01*
X4005640Y3304740D01*
X4004580Y3299260D01*
X4004220Y3293660D01*
X4004580Y3288080D01*
X4005640Y3282600D01*
X4007400Y3277280D01*
X4009840Y3272240D01*
X4012880Y3267559D01*
X4016500Y3263300D01*
X4020659Y3259540D01*
X4025240Y3256340D01*
X4030200Y3253759D01*
X4035440Y3251820D01*
X4040899Y3250580D01*
G37*
G36*
X3432740Y3481139D02*
G01*
X3489400Y3481139D01*
X3491940Y3481420D01*
X3494140Y3482180D01*
X3496120Y3483440D01*
X3497760Y3485080D01*
X3499000Y3487060D01*
X3499780Y3489260D01*
X3500059Y3491800D01*
X3500059Y3548440D01*
X3499780Y3551000D01*
X3499000Y3553200D01*
X3497760Y3555179D01*
X3496120Y3556820D01*
X3494140Y3558060D01*
X3491940Y3558840D01*
X3489400Y3559120D01*
X3456259Y3559120D01*
X3453820Y3558860D01*
X3451620Y3558080D01*
X3449640Y3556840D01*
X3448680Y3555980D01*
X3425220Y3532520D01*
X3423680Y3530600D01*
X3422660Y3528500D01*
X3422140Y3526220D01*
X3422080Y3524940D01*
X3422080Y3491800D01*
X3422360Y3489260D01*
X3423140Y3487060D01*
X3424380Y3485080D01*
X3426019Y3483440D01*
X3428000Y3482180D01*
X3430200Y3481420D01*
G37*
G36*
X4434220Y3740200D02*
G01*
X4438080Y3740539D01*
X4441800Y3741540D01*
X4445320Y3743159D01*
X4448480Y3745380D01*
X4449100Y3746000D01*
X4450400Y3746880D01*
X4451940Y3747180D01*
X4478480Y3747180D01*
X4481640Y3747500D01*
X4484500Y3748360D01*
X4487120Y3749760D01*
X4489420Y3751640D01*
X4491300Y3753940D01*
X4492700Y3756580D01*
X4494000Y3761000D01*
X4494880Y3762160D01*
X4496120Y3762919D01*
X4497560Y3763200D01*
X4507680Y3763200D01*
X4510180Y3763480D01*
X4512320Y3764220D01*
X4514260Y3765440D01*
X4515860Y3767060D01*
X4517080Y3768980D01*
X4517840Y3771139D01*
X4518120Y3773620D01*
X4518120Y3883720D01*
X4517840Y3886200D01*
X4517080Y3888360D01*
X4515860Y3890280D01*
X4514260Y3891900D01*
X4512320Y3893120D01*
X4510180Y3893860D01*
X4507680Y3894140D01*
X4449680Y3894140D01*
X4447180Y3893860D01*
X4445040Y3893120D01*
X4443100Y3891900D01*
X4441500Y3890280D01*
X4440280Y3888360D01*
X4439520Y3886200D01*
X4439240Y3883720D01*
X4439240Y3788500D01*
X4438900Y3786880D01*
X4437940Y3785539D01*
X4436540Y3784700D01*
X4434900Y3784500D01*
X4434220Y3784560D01*
X4430360Y3784220D01*
X4426640Y3783220D01*
X4423120Y3781600D01*
X4419960Y3779380D01*
X4417220Y3776640D01*
X4415000Y3773480D01*
X4413380Y3769960D01*
X4412380Y3766240D01*
X4412040Y3762380D01*
X4412380Y3758519D01*
X4413380Y3754800D01*
X4415000Y3751280D01*
X4417220Y3748120D01*
X4419960Y3745380D01*
X4423120Y3743159D01*
X4426640Y3741540D01*
X4430360Y3740539D01*
G37*
G36*
X2638460Y3754120D02*
G01*
X2644420Y3754480D01*
X2650320Y3755560D01*
X2656019Y3757340D01*
X2661480Y3759800D01*
X2666600Y3762900D01*
X2671320Y3766580D01*
X2675539Y3770820D01*
X2679240Y3775520D01*
X2682340Y3780640D01*
X2684800Y3786100D01*
X2686580Y3791820D01*
X2687660Y3797700D01*
X2688020Y3803680D01*
X2687660Y3809660D01*
X2686580Y3815539D01*
X2684800Y3821259D01*
X2682340Y3826720D01*
X2679240Y3831840D01*
X2675539Y3836540D01*
X2671320Y3840779D01*
X2666600Y3844460D01*
X2661480Y3847559D01*
X2656019Y3850020D01*
X2650320Y3851800D01*
X2644420Y3852880D01*
X2638460Y3853240D01*
X2632480Y3852880D01*
X2626580Y3851800D01*
X2620880Y3850020D01*
X2615419Y3847559D01*
X2610299Y3844460D01*
X2605580Y3840779D01*
X2601360Y3836540D01*
X2597660Y3831840D01*
X2594560Y3826720D01*
X2592100Y3821259D01*
X2590320Y3815539D01*
X2589240Y3809660D01*
X2588880Y3803680D01*
X2589240Y3797700D01*
X2590320Y3791820D01*
X2592100Y3786100D01*
X2594560Y3780640D01*
X2597660Y3775520D01*
X2601360Y3770820D01*
X2605580Y3766580D01*
X2610299Y3762900D01*
X2615419Y3759800D01*
X2620880Y3757340D01*
X2626580Y3755560D01*
X2632480Y3754480D01*
G37*
G36*
X2047860Y3754120D02*
G01*
X2053820Y3754480D01*
X2059720Y3755560D01*
X2065420Y3757340D01*
X2070880Y3759800D01*
X2076000Y3762900D01*
X2080720Y3766580D01*
X2084940Y3770820D01*
X2088640Y3775520D01*
X2091740Y3780640D01*
X2094199Y3786100D01*
X2095980Y3791820D01*
X2097060Y3797700D01*
X2097420Y3803680D01*
X2097060Y3809660D01*
X2095980Y3815539D01*
X2094199Y3821259D01*
X2091740Y3826720D01*
X2088640Y3831840D01*
X2084940Y3836540D01*
X2080720Y3840779D01*
X2076000Y3844460D01*
X2070880Y3847559D01*
X2065420Y3850020D01*
X2059720Y3851800D01*
X2053820Y3852880D01*
X2047860Y3853240D01*
X2041879Y3852880D01*
X2035980Y3851800D01*
X2030280Y3850020D01*
X2024820Y3847559D01*
X2019700Y3844460D01*
X2014980Y3840779D01*
X2010760Y3836540D01*
X2007060Y3831840D01*
X2003959Y3826720D01*
X2001500Y3821259D01*
X1999720Y3815539D01*
X1998640Y3809660D01*
X1998280Y3803680D01*
X1998640Y3797700D01*
X1999720Y3791820D01*
X2001500Y3786100D01*
X2003959Y3780640D01*
X2007060Y3775520D01*
X2010760Y3770820D01*
X2014980Y3766580D01*
X2019700Y3762900D01*
X2024820Y3759800D01*
X2030280Y3757340D01*
X2035980Y3755560D01*
X2041879Y3754480D01*
G37*
G36*
X2441560Y3754120D02*
G01*
X2447520Y3754480D01*
X2453420Y3755560D01*
X2459120Y3757340D01*
X2464580Y3759800D01*
X2469700Y3762900D01*
X2474420Y3766580D01*
X2478640Y3770820D01*
X2482340Y3775520D01*
X2485440Y3780640D01*
X2487900Y3786100D01*
X2489680Y3791820D01*
X2490760Y3797700D01*
X2491120Y3803680D01*
X2490760Y3809660D01*
X2489680Y3815539D01*
X2487900Y3821259D01*
X2485440Y3826720D01*
X2482340Y3831840D01*
X2478640Y3836540D01*
X2474420Y3840779D01*
X2469700Y3844460D01*
X2464580Y3847559D01*
X2459120Y3850020D01*
X2453420Y3851800D01*
X2447520Y3852880D01*
X2441560Y3853240D01*
X2435580Y3852880D01*
X2429680Y3851800D01*
X2423980Y3850020D01*
X2418520Y3847559D01*
X2413400Y3844460D01*
X2408680Y3840779D01*
X2404460Y3836540D01*
X2400760Y3831840D01*
X2397660Y3826720D01*
X2395200Y3821259D01*
X2393420Y3815539D01*
X2392340Y3809660D01*
X2391980Y3803680D01*
X2392340Y3797700D01*
X2393420Y3791820D01*
X2395200Y3786100D01*
X2397660Y3780640D01*
X2400760Y3775520D01*
X2404460Y3770820D01*
X2408680Y3766580D01*
X2413400Y3762900D01*
X2418520Y3759800D01*
X2423980Y3757340D01*
X2429680Y3755560D01*
X2435580Y3754480D01*
G37*
G36*
X2993000Y3754160D02*
G01*
X3071300Y3754160D01*
X3073780Y3754440D01*
X3075940Y3755200D01*
X3077860Y3756400D01*
X3079480Y3758020D01*
X3080680Y3759940D01*
X3081440Y3762100D01*
X3081720Y3764580D01*
X3081720Y3784840D01*
X3081980Y3786280D01*
X3082760Y3787520D01*
X3083920Y3788399D01*
X3088340Y3789700D01*
X3090960Y3791100D01*
X3093420Y3793120D01*
X3152880Y3852580D01*
X3154180Y3853440D01*
X3155720Y3853759D01*
X4234940Y3853759D01*
X4236460Y3853440D01*
X4237760Y3852580D01*
X4262120Y3828220D01*
X4264580Y3826200D01*
X4267200Y3824800D01*
X4271520Y3823560D01*
X4272640Y3822780D01*
X4273440Y3821660D01*
X4273800Y3820340D01*
X4274100Y3817280D01*
X4274860Y3815160D01*
X4276060Y3813220D01*
X4277680Y3811620D01*
X4279600Y3810400D01*
X4281760Y3809640D01*
X4284240Y3809360D01*
X4378640Y3809360D01*
X4381120Y3809640D01*
X4383280Y3810400D01*
X4385200Y3811620D01*
X4386820Y3813220D01*
X4388020Y3815160D01*
X4388780Y3817300D01*
X4389060Y3819800D01*
X4389060Y3857860D01*
X4388780Y3860360D01*
X4388020Y3862500D01*
X4386820Y3864440D01*
X4385200Y3866040D01*
X4383280Y3867260D01*
X4381120Y3868020D01*
X4378640Y3868300D01*
X4284240Y3868300D01*
X4281760Y3868020D01*
X4279600Y3867260D01*
X4277680Y3866040D01*
X4275000Y3863240D01*
X4273740Y3862580D01*
X4272320Y3862420D01*
X4270920Y3862780D01*
X4269760Y3863580D01*
X4253780Y3879560D01*
X4251320Y3881580D01*
X4248700Y3882980D01*
X4245860Y3883840D01*
X4242700Y3884160D01*
X3147960Y3884160D01*
X3144800Y3883840D01*
X3141960Y3882980D01*
X3139320Y3881580D01*
X3136880Y3879560D01*
X3088540Y3831240D01*
X3087260Y3830360D01*
X3085720Y3830059D01*
X3084180Y3830360D01*
X3082900Y3831240D01*
X3082020Y3832540D01*
X3081720Y3834060D01*
X3081720Y3842880D01*
X3081440Y3845360D01*
X3080680Y3847520D01*
X3079480Y3849440D01*
X3077860Y3851060D01*
X3075940Y3852260D01*
X3073780Y3853020D01*
X3071300Y3853300D01*
X2993000Y3853300D01*
X2990520Y3853020D01*
X2988360Y3852260D01*
X2986440Y3851060D01*
X2984820Y3849440D01*
X2983620Y3847520D01*
X2982860Y3845360D01*
X2982580Y3842880D01*
X2982580Y3764580D01*
X2982860Y3762100D01*
X2983620Y3759940D01*
X2984820Y3758020D01*
X2986440Y3756400D01*
X2988360Y3755200D01*
X2990520Y3754440D01*
G37*

%LPD*%
G36*
X3284120Y1911180D02*
G01*
X3282580Y1911480D01*
X3281280Y1912340D01*
X3280419Y1913640D01*
X3280120Y1915180D01*
X3280419Y1916699D01*
X3281280Y1918000D01*
X3289900Y1926600D01*
X3291300Y1927520D01*
X3292940Y1927780D01*
X3294560Y1927340D01*
X3295840Y1926279D01*
X3296600Y1924800D01*
X3297700Y1920580D01*
X3299420Y1916860D01*
X3299800Y1915320D01*
X3299540Y1913740D01*
X3298680Y1912400D01*
X3297360Y1911480D01*
X3295800Y1911180D01*
G37*

%LPD*%
G36*
X3314440Y1777540D02*
G01*
X3312900Y1777840D01*
X3311600Y1778700D01*
X3310740Y1780000D01*
X3310440Y1781540D01*
X3310440Y1876780D01*
X3310740Y1878300D01*
X3311600Y1879600D01*
X3312900Y1880460D01*
X3314440Y1880780D01*
X3435240Y1880780D01*
X3436780Y1880460D01*
X3438080Y1879600D01*
X3438940Y1878300D01*
X3439240Y1876780D01*
X3439240Y1781540D01*
X3438940Y1780000D01*
X3438080Y1778700D01*
X3436780Y1777840D01*
X3435240Y1777540D01*
G37*

%LPD*%
G36*
X3706620Y1756740D02*
G01*
X3704940Y1757100D01*
X3703580Y1758140D01*
X3702780Y1759640D01*
X3702660Y1761339D01*
X3703279Y1762940D01*
X3704480Y1764120D01*
X3706580Y1765440D01*
X3708180Y1767060D01*
X3709400Y1768980D01*
X3710160Y1771140D01*
X3710440Y1773620D01*
X3710440Y1876780D01*
X3710740Y1878300D01*
X3711600Y1879600D01*
X3712900Y1880460D01*
X3714440Y1880780D01*
X3835240Y1880780D01*
X3836780Y1880460D01*
X3838080Y1879600D01*
X3838940Y1878300D01*
X3839240Y1876780D01*
X3839240Y1773620D01*
X3839520Y1771140D01*
X3840280Y1768980D01*
X3841500Y1767060D01*
X3843100Y1765440D01*
X3845200Y1764120D01*
X3846400Y1762940D01*
X3847020Y1761339D01*
X3846900Y1759640D01*
X3846100Y1758140D01*
X3844740Y1757100D01*
X3843060Y1756740D01*
G37*

%LPD*%
G36*
X3514300Y1756740D02*
G01*
X3512620Y1757100D01*
X3511259Y1758140D01*
X3510460Y1759640D01*
X3510340Y1761339D01*
X3510960Y1762940D01*
X3512160Y1764120D01*
X3514260Y1765440D01*
X3515860Y1767060D01*
X3517080Y1768980D01*
X3517840Y1771140D01*
X3518120Y1773620D01*
X3518120Y1876780D01*
X3518420Y1878300D01*
X3519280Y1879600D01*
X3520580Y1880460D01*
X3522120Y1880780D01*
X3627559Y1880780D01*
X3629100Y1880460D01*
X3630400Y1879600D01*
X3631259Y1878300D01*
X3631560Y1876780D01*
X3631560Y1847880D01*
X3631259Y1846339D01*
X3630400Y1845040D01*
X3629100Y1844180D01*
X3627559Y1843880D01*
X3569400Y1843880D01*
X3567860Y1844180D01*
X3566580Y1845040D01*
X3565960Y1845660D01*
X3562780Y1847880D01*
X3559280Y1849520D01*
X3555539Y1850520D01*
X3551700Y1850860D01*
X3547840Y1850520D01*
X3544100Y1849520D01*
X3540600Y1847880D01*
X3537420Y1845660D01*
X3534700Y1842940D01*
X3532480Y1839760D01*
X3530840Y1836260D01*
X3529840Y1832520D01*
X3529500Y1828660D01*
X3529840Y1824820D01*
X3530840Y1821080D01*
X3532480Y1817580D01*
X3534700Y1814400D01*
X3537420Y1811680D01*
X3540600Y1809460D01*
X3544100Y1807820D01*
X3547840Y1806819D01*
X3551700Y1806480D01*
X3555539Y1806819D01*
X3559280Y1807820D01*
X3562780Y1809460D01*
X3565960Y1811680D01*
X3566580Y1812300D01*
X3567880Y1813160D01*
X3569400Y1813480D01*
X3627559Y1813480D01*
X3629100Y1813160D01*
X3630400Y1812300D01*
X3631259Y1811000D01*
X3631560Y1809480D01*
X3631560Y1773620D01*
X3631840Y1771140D01*
X3632600Y1768980D01*
X3633820Y1767060D01*
X3635419Y1765440D01*
X3637520Y1764120D01*
X3638720Y1762940D01*
X3639340Y1761339D01*
X3639220Y1759640D01*
X3638420Y1758140D01*
X3637060Y1757100D01*
X3635380Y1756740D01*
G37*

%LPD*%
G36*
X3456139Y3548680D02*
G01*
X3432520Y3525059D01*
X3432520Y3491580D01*
X3489620Y3491580D01*
X3489620Y3548680D01*
G37*
G36*
X3341980Y3265220D02*
G01*
X3341980Y3233720D01*
X3357720Y3233720D01*
X3357720Y3265220D01*
G37*
G36*
X3373480Y3265220D02*
G01*
X3373480Y3233720D01*
X3389220Y3233720D01*
X3389220Y3265220D01*
G37*
G36*
X3404960Y3265220D02*
G01*
X3404960Y3233720D01*
X3420720Y3233720D01*
X3420720Y3265220D01*
G37*
G36*
X3436460Y3265220D02*
G01*
X3436460Y3233720D01*
X3452220Y3233720D01*
X3452220Y3265220D01*
G37*
G36*
X3467960Y3265220D02*
G01*
X3467960Y3233720D01*
X3483700Y3233720D01*
X3483700Y3265220D01*
G37*
G36*
X3499460Y3265220D02*
G01*
X3499460Y3233720D01*
X3515200Y3233720D01*
X3515200Y3265220D01*
G37*
G36*
X3530960Y3265220D02*
G01*
X3530960Y3233720D01*
X3546700Y3233720D01*
X3546700Y3265220D01*
G37*
G36*
X3562440Y3265220D02*
G01*
X3562440Y3233720D01*
X3578200Y3233720D01*
X3578200Y3265220D01*
G37*
G36*
X3593940Y3265220D02*
G01*
X3593940Y3233720D01*
X3609700Y3233720D01*
X3609700Y3265220D01*
G37*
G36*
X3625440Y3265220D02*
G01*
X3625440Y3233720D01*
X3641180Y3233720D01*
X3641180Y3265220D01*
G37*
G36*
X3656940Y3265220D02*
G01*
X3656940Y3233720D01*
X3672679Y3233720D01*
X3672679Y3265220D01*
G37*
G36*
X3688440Y3265220D02*
G01*
X3688440Y3233720D01*
X3704180Y3233720D01*
X3704180Y3265220D01*
G37*
G36*
X3719920Y3265220D02*
G01*
X3719920Y3233720D01*
X3735680Y3233720D01*
X3735680Y3265220D01*
G37*
G36*
X3719920Y3651040D02*
G01*
X3719920Y3619540D01*
X3735680Y3619540D01*
X3735680Y3651040D01*
G37*
G36*
X3688440Y3651040D02*
G01*
X3688440Y3619540D01*
X3704180Y3619540D01*
X3704180Y3651040D01*
G37*
G36*
X3656940Y3651040D02*
G01*
X3656940Y3619540D01*
X3672679Y3619540D01*
X3672679Y3651040D01*
G37*
G36*
X3625440Y3651040D02*
G01*
X3625440Y3619540D01*
X3641180Y3619540D01*
X3641180Y3651040D01*
G37*
G36*
X3593940Y3651040D02*
G01*
X3593940Y3619540D01*
X3609700Y3619540D01*
X3609700Y3651040D01*
G37*
G36*
X3562440Y3651040D02*
G01*
X3562440Y3619540D01*
X3578200Y3619540D01*
X3578200Y3651040D01*
G37*
G36*
X3530960Y3651040D02*
G01*
X3530960Y3619540D01*
X3546700Y3619540D01*
X3546700Y3651040D01*
G37*
G36*
X3499460Y3651040D02*
G01*
X3499460Y3619540D01*
X3515200Y3619540D01*
X3515200Y3651040D01*
G37*
G36*
X3467960Y3651040D02*
G01*
X3467960Y3619540D01*
X3483700Y3619540D01*
X3483700Y3651040D01*
G37*
G36*
X3436460Y3651040D02*
G01*
X3436460Y3619540D01*
X3452220Y3619540D01*
X3452220Y3651040D01*
G37*
G36*
X3404960Y3651040D02*
G01*
X3404960Y3619540D01*
X3420720Y3619540D01*
X3420720Y3651040D01*
G37*
G36*
X3373480Y3651040D02*
G01*
X3373480Y3619540D01*
X3389220Y3619540D01*
X3389220Y3651040D01*
G37*
G36*
X3341980Y3651040D02*
G01*
X3341980Y3619540D01*
X3357720Y3619540D01*
X3357720Y3651040D01*
G37*
D10*
X2822281Y2348671D02*
G01*
X2871001Y2348671D01*
X3304581Y3247491D02*
G01*
X3304581Y3259891D01*
X4474321Y2692581D02*
G01*
X4388231Y2778671D01*
X4487381Y3548671D02*
G01*
X4487381Y3567471D01*
X4487681Y3227421D02*
G01*
X4487681Y3216161D01*
X4613081Y3238671D02*
G01*
X4572831Y3238671D01*
X4550321Y3216161D01*
X4487681Y3216161D01*
X4487681Y3193641D01*
X4487681Y2985561D01*
X2146301Y2442451D02*
G01*
X2188151Y2400601D01*
X2570351Y2400601D01*
X2622281Y2348671D01*
X4476031Y2938671D02*
G01*
X4476031Y2985511D01*
X4487631Y2985511D01*
X4487681Y2985561D01*
X4614291Y2985561D01*
X4617201Y2982651D01*
X4617201Y2894721D01*
X4501151Y2778671D01*
X4388231Y2778671D01*
X4254171Y2778671D01*
X4154171Y2778671D01*
X4054171Y2778671D01*
X3656721Y2778671D01*
X3496721Y2938671D01*
X3296721Y2938671D01*
X4733631Y2658671D02*
G01*
X4720191Y2658671D01*
X4533631Y2358671D02*
G01*
X4560521Y2358671D01*
X4706751Y2504901D01*
X4706751Y2658671D01*
X4720191Y2658671D01*
X4720191Y2672711D01*
X4700321Y2692581D01*
X4474321Y2692581D01*
X4474321Y2658671D01*
X3306551Y3568361D02*
G01*
X3319931Y3568361D01*
X3616591Y3520131D02*
G01*
X3616591Y3559691D01*
X3633321Y3576421D01*
X3633321Y3608531D01*
X3727811Y3635281D02*
G01*
X3727811Y3648661D01*
X3664811Y3635281D02*
G01*
X3664811Y3608531D01*
X3304581Y3637251D02*
G01*
X3316981Y3637251D01*
X3570331Y3635281D02*
G01*
X3570331Y3648661D01*
X3538831Y3635281D02*
G01*
X3538831Y3648661D01*
X3507331Y3635281D02*
G01*
X3507331Y3648661D01*
X3475841Y3635281D02*
G01*
X3475841Y3648661D01*
X3444341Y3635281D02*
G01*
X3444341Y3648661D01*
X3412851Y3635281D02*
G01*
X3412851Y3648661D01*
X3381351Y3635281D02*
G01*
X3381351Y3648661D01*
X3349851Y3635281D02*
G01*
X3349851Y3648661D01*
X3538831Y3520131D02*
G01*
X3616591Y3520131D01*
X3616591Y3442371D01*
X3577711Y3442371D01*
X3461071Y3442371D02*
G01*
X3538831Y3442371D01*
X3577711Y3442371D01*
X3577711Y3364621D01*
X3461071Y3364621D02*
G01*
X3538831Y3364621D01*
X3577711Y3364621D01*
X3616591Y3364621D01*
X3656141Y3364621D01*
X3672881Y3347881D01*
X3771111Y3347881D01*
X3306551Y3626821D02*
G01*
X3316981Y3637251D01*
X3329371Y3637251D01*
X3329371Y3659131D01*
X3332281Y3662041D01*
X3349851Y3662041D01*
X3349851Y3648661D01*
X3363231Y3662041D01*
X3381351Y3662041D01*
X3381351Y3648661D01*
X3394731Y3662041D01*
X3412851Y3662041D01*
X3412851Y3648661D01*
X3426231Y3662041D01*
X3444341Y3662041D01*
X3444341Y3648661D01*
X3457721Y3662041D01*
X3475841Y3662041D01*
X3475841Y3648661D01*
X3489221Y3662041D01*
X3507331Y3662041D01*
X3507331Y3648661D01*
X3520711Y3662041D01*
X3538831Y3662041D01*
X3538831Y3648661D01*
X3552211Y3662041D01*
X3570331Y3662041D01*
X3570331Y3648661D01*
X3583711Y3662041D01*
X3601821Y3662041D01*
X3601821Y3648661D01*
X2835251Y3803671D02*
G01*
X3012101Y3626821D01*
X3306551Y3626821D01*
X3306551Y3599851D01*
X3333311Y3599851D01*
X3333311Y3581741D01*
X3319931Y3568361D01*
X3333311Y3568361D01*
X3333311Y3536861D01*
X3306551Y3536861D01*
X3279791Y3536861D01*
X3279741Y3536811D01*
X3279741Y3272301D01*
X3292151Y3259891D01*
X3304581Y3259891D01*
X3304581Y3272281D01*
X3306551Y3274251D01*
X3306551Y3284891D01*
X3333311Y3284891D01*
X3404181Y3284891D01*
X3412851Y3276221D01*
X3412851Y3258861D01*
X3412851Y3249461D01*
X3412851Y3222701D01*
X3412901Y3222651D01*
X3748241Y3222651D01*
X3748291Y3222701D01*
X3748291Y3247491D01*
X3773081Y3247491D01*
X3797871Y3247491D01*
X3817941Y3227421D01*
X4487681Y3227421D01*
X4487681Y3238671D01*
X3772461Y3637251D02*
G01*
X3748291Y3637251D01*
X3748291Y3659131D01*
X3745381Y3662041D01*
X3727811Y3662041D01*
X3727811Y3648661D01*
X3714431Y3662041D01*
X3696311Y3662041D01*
X3696311Y3635281D01*
X3696311Y3608531D01*
X3664811Y3608531D01*
X3633321Y3608531D01*
X3633321Y3635281D01*
X3633321Y3662041D01*
X3615201Y3662041D01*
X3601821Y3648661D01*
X3601821Y3635281D01*
X2871001Y1828671D02*
G01*
X2871001Y1894961D01*
X2871001Y2348671D01*
X2997491Y2348671D01*
X3057091Y2408271D01*
X3084381Y2435561D01*
X3384471Y2435561D01*
X3434471Y2435561D01*
X3484471Y2435561D01*
X3484471Y2449141D01*
X3527821Y2492491D01*
X3646421Y2492491D01*
X3684471Y2454441D01*
X3684471Y2435561D01*
X3773081Y3637251D02*
G01*
X3772461Y3637251D01*
X3883881Y3748671D01*
X4061871Y3748671D01*
X4185301Y3748671D01*
X4185301Y3746231D01*
X4273021Y3658510D01*
X4306221Y3658510D01*
X4331461Y3658510D01*
X4389891Y3658510D01*
X4462141Y3586261D01*
X4487381Y3586261D01*
X4487381Y3567471D01*
X4508561Y3567471D01*
X4527361Y3548671D01*
X4566131Y3548671D01*
X2822281Y2648671D02*
G01*
X3016691Y2648671D01*
X3057091Y2608270D01*
X2392371Y1788671D02*
G01*
X2418711Y1762331D01*
X3230321Y1762331D01*
X4478681Y3828671D02*
G01*
X4478681Y3762380D01*
X4434221Y3762380D01*
X3478681Y1828671D02*
G01*
X3478681Y1795531D01*
X3478681Y1762381D01*
X3478630Y1762331D01*
X3230321Y1762331D01*
X3230321Y1888531D01*
X3599760Y2257971D01*
X4022211Y2257971D01*
X4182910Y2418671D01*
X3878681Y1812101D02*
G01*
X3926250Y1812101D01*
X4047871Y3293671D02*
G01*
X4208421Y3454221D01*
X4542911Y3454221D01*
X4671001Y3582311D01*
X4671001Y3828671D01*
X2097091Y1788671D02*
G01*
X2144221Y1741541D01*
X3857841Y1741541D01*
X3878681Y1762381D01*
X3878681Y1795531D01*
X3878681Y1812101D01*
X3878681Y1828671D01*
X4585471Y2938671D02*
G01*
X4585471Y2891841D01*
X4585421Y2891791D01*
X3669771Y2891791D01*
X3564061Y2997500D01*
X3235191Y2997500D01*
X3011881Y2774191D01*
X2647801Y2774191D01*
X2522281Y2648671D01*
X2146301Y2206231D02*
G01*
X2457571Y1894961D01*
X2678681Y1894961D01*
X2678681Y1828671D01*
X4331441Y3838831D02*
G01*
X4273011Y3838831D01*
X4242891Y3868951D01*
X3147761Y3868951D01*
X3082531Y3803721D01*
X3032151Y3803721D01*
X4071001Y1828671D02*
G01*
X4071001Y1894961D01*
X4069991Y1895971D01*
X3318541Y1895971D01*
X3271001Y1828671D02*
G01*
X3271001Y1894961D01*
X3272011Y1895971D01*
X3318541Y1895971D01*
X3318541Y1928171D01*
X3671001Y1828671D02*
G01*
X3551691Y1828671D01*
X3078681Y1828671D02*
G01*
X3078681Y1894961D01*
X2912260Y1894961D01*
X2903971Y1903251D01*
X2335281Y2462131D02*
G01*
X2178021Y2619391D01*
X2114581Y2619391D01*
X1957321Y2462131D01*
X2335281Y2277101D02*
G01*
X1957321Y2277101D01*
X4474321Y2358671D02*
G01*
X4501211Y2358671D01*
X4501211Y2563921D01*
X4674321Y2658671D02*
G01*
X4533631Y2658671D01*
X4506751Y2658671D01*
X4506751Y2569461D01*
X4501211Y2563921D01*
X2807031Y2563921D01*
X2722281Y2648671D01*
X3444341Y3276221D02*
G01*
X3404171Y3316391D01*
X3333311Y3316391D01*
X3306551Y3505360D02*
G01*
X3333311Y3505360D01*
X3333361Y3505311D01*
X3333361Y3410931D01*
X3333311Y3410881D01*
X3306551Y3410881D02*
G01*
X3333311Y3410881D01*
X3333361Y3410831D01*
X3333361Y3347931D01*
X3333311Y3347881D01*
X3306551Y3347881D02*
G01*
X3333311Y3347881D01*
X3333311Y3316391D01*
X3306551Y3316391D01*
X3444341Y3249461D02*
G01*
X3444341Y3276221D01*
X3444391Y3276271D01*
X3507331Y3276271D01*
X3507331Y3249461D02*
G01*
X3507331Y3276221D01*
X3507331Y3276271D01*
X3727761Y3276271D01*
X3727811Y3276221D01*
X3789091Y3379381D02*
G01*
X3797951Y3370521D01*
X3797951Y3284971D01*
X3797871Y3284891D01*
X3784491Y3284891D01*
X3771111Y3284891D01*
X3744351Y3284891D01*
X3735681Y3276221D01*
X3727811Y3276221D01*
X3727811Y3272241D01*
X3727811Y3249461D01*
X3771111Y3410881D02*
G01*
X3784491Y3410881D01*
X3793891Y3505360D02*
G01*
X3797921Y3501331D01*
X3797921Y3410931D01*
X3797871Y3410881D01*
X3784491Y3410881D01*
X3797871Y3397500D01*
X3797871Y3379381D01*
X3789091Y3379381D01*
X3787811Y3379381D01*
X3771111Y3379381D01*
X3771111Y3536861D02*
G01*
X3784491Y3536861D01*
X3771111Y3568361D02*
G01*
X3784491Y3568361D01*
X3771111Y3599851D02*
G01*
X3797871Y3599851D01*
X3797871Y3568361D01*
X3784491Y3568361D01*
X3797871Y3554981D01*
X3797871Y3536861D01*
X3784491Y3536861D01*
X3793891Y3527461D01*
X3793891Y3505360D01*
X3771111Y3505360D01*
D11*
X3432525Y3491582D02*
G01*
X3489615Y3491582D01*
X3489615Y3548672D01*
X3456145Y3548672D01*
X3432525Y3525052D01*
X3432525Y3491582D01*
D12*
G01*
X4566120Y3548670D03*
G01*
X4487380Y3548670D03*
D13*
G01*
X4613070Y3238670D03*
G01*
X4487680Y3238670D03*
D14*
G01*
X4476030Y2938670D03*
G01*
X4585470Y2938670D03*
D15*
G01*
X2871000Y1828670D03*
G01*
X2678680Y1828670D03*
G01*
X3271000Y1828670D03*
G01*
X3078680Y1828670D03*
G01*
X3671000Y1828670D03*
G01*
X3478680Y1828670D03*
G01*
X4071000Y1828670D03*
G01*
X3878680Y1828670D03*
G01*
X4671000Y3828670D03*
G01*
X4478680Y3828670D03*
D17*
G01*
X4533630Y2658670D03*
G01*
X4474320Y2658670D03*
G01*
X4733630Y2658670D03*
G01*
X4674320Y2658670D03*
G01*
X4533630Y2358670D03*
G01*
X4474320Y2358670D03*
D18*
G01*
X3306549Y3599850D03*
G01*
X3306549Y3568360D03*
G01*
X3306549Y3536860D03*
G01*
X3306549Y3505360D03*
G01*
X3306549Y3473870D03*
G01*
X3306549Y3442370D03*
G01*
X3306549Y3410880D03*
G01*
X3306549Y3379380D03*
G01*
X3306549Y3347880D03*
G01*
X3306549Y3316390D03*
G01*
X3306549Y3284889D03*
G01*
X3771110Y3284889D03*
G01*
X3771110Y3316390D03*
G01*
X3771110Y3347880D03*
G01*
X3771110Y3379380D03*
G01*
X3771110Y3410880D03*
G01*
X3771110Y3442370D03*
G01*
X3771110Y3473870D03*
G01*
X3771110Y3505360D03*
G01*
X3771110Y3536860D03*
G01*
X3771110Y3568360D03*
G01*
X3771110Y3599850D03*
D19*
G01*
X3538830Y3442370D03*
G01*
X3616590Y3520130D03*
G01*
X3538830Y3520130D03*
D20*
G01*
X3461070Y3520130D03*
D19*
G01*
X3461070Y3442370D03*
G01*
X3461070Y3364620D03*
G01*
X3538830Y3364620D03*
G01*
X3616590Y3364620D03*
G01*
X3616590Y3442370D03*
D21*
G01*
X3304580Y3637250D03*
G01*
X3304580Y3247490D03*
G01*
X3773080Y3247490D03*
G01*
X3773080Y3637250D03*
D22*
G01*
X3684470Y2641780D03*
G01*
X3634470Y2641780D03*
G01*
X3584470Y2641780D03*
G01*
X3534470Y2641780D03*
G01*
X3484470Y2641780D03*
G01*
X3434470Y2641780D03*
G01*
X3384470Y2641780D03*
G01*
X3684470Y2435570D03*
G01*
X3634470Y2435570D03*
G01*
X3584470Y2435570D03*
G01*
X3534470Y2435570D03*
G01*
X3484470Y2435570D03*
G01*
X3434470Y2435570D03*
G01*
X3384470Y2435570D03*
D23*
G01*
X4331450Y3658510D03*
G01*
X4331440Y3838830D03*
D24*
G01*
X4061870Y3748670D03*
D25*
G01*
X4182910Y2418670D03*
G01*
X3982910Y2418670D03*
D26*
G01*
X3296720Y2938670D03*
G01*
X3496720Y2938670D03*
D25*
G01*
X2146300Y2570400D03*
D27*
G01*
X2146300Y2206230D03*
D28*
G01*
X2146300Y2442450D03*
D29*
G01*
X1957320Y2462140D03*
G01*
X2335270Y2462140D03*
G01*
X1957320Y2277100D03*
G01*
X2335270Y2277100D03*
D30*
G01*
X4047870Y3293670D03*
G01*
X4146300Y3293670D03*
D31*
G01*
X4054169Y2778680D03*
D32*
G01*
X4154169Y2778670D03*
G01*
X4254170Y2778670D03*
G01*
X2097090Y1788670D03*
G01*
X2392360Y1788670D03*
D33*
G01*
X3057080Y2508280D03*
G01*
X3057080Y2608279D03*
G01*
X3057080Y2408280D03*
D34*
G01*
X2047850Y3016280D03*
G01*
X2244750Y3016280D03*
G01*
X2441550Y3016280D03*
G01*
X2638450Y3016280D03*
G01*
X2835250Y3016280D03*
G01*
X3032149Y3016280D03*
G01*
X2047850Y3803680D03*
G01*
X2441550Y3803680D03*
G01*
X2638450Y3803680D03*
G01*
X2835250Y3803680D03*
D35*
G01*
X3032149Y3803730D03*
D36*
G01*
X2522280Y2348670D03*
D37*
G01*
X2622280Y2348670D03*
G01*
X2722280Y2348670D03*
G01*
X2822280Y2348670D03*
G01*
X2522280Y2648670D03*
G01*
X2622280Y2648670D03*
G01*
X2722280Y2648670D03*
G01*
X2822280Y2648670D03*
D38*
G01*
X4434220Y3762380D03*
G01*
X3926250Y1812100D03*
G01*
X3235190Y2997500D03*
G01*
X3318540Y1928170D03*
G01*
X3551690Y1828670D03*
M02*
