G04 Layer: TopSilkscreenLayer*
G04 EasyEDA v6.5.51, 2026-06-12 00:00:43*
G04 721b8d7b2a2e4cdb981c8f928fe5aa8b,10*
G04 Gerber Generator version 0.2*
G04 Scale: 100 percent, Rotated: No, Reflected: No *
G04 Dimensions in inches *
G04 leading zeros omitted , absolute positions ,3 integer and 6 decimal *
%FSLAX36Y36*%
%MOIN*%

%ADD10C,0.0060*%
%ADD11C,0.0100*%
%ADD12C,0.0079*%
%ADD13C,0.0050*%
%ADD14C,0.0079*%
%ADD15C,0.0157*%
%ADD16C,0.0118*%
%ADD17C,0.0098*%
%ADD18C,0.0236*%

%LPD*%
D10*
X4515476Y3643978D02*
G01*
X4511053Y3644634D01*
X4505342Y3643628D01*
X4501271Y3641474D01*
X4496567Y3634756D01*
X4495936Y3630193D01*
X4496943Y3624483D01*
X4499072Y3620551D01*
X4503004Y3615356D01*
X4511359Y3609506D01*
X4517503Y3607645D01*
X4522009Y3606932D01*
X4527719Y3607939D01*
X4531791Y3610093D01*
X4536494Y3616810D01*
X4537126Y3621373D01*
X4536119Y3627083D01*
X4533907Y3631073D01*
X4521581Y3656184D02*
G01*
X4522295Y3660690D01*
X4520772Y3669325D01*
X4555996Y3644661D01*
X4103437Y2540643D02*
G01*
X4100373Y2543963D01*
X4095448Y2546889D01*
X4090944Y2547856D01*
X4083024Y2545733D01*
X4079606Y2542644D01*
X4076708Y2537622D01*
X4075811Y2533241D01*
X4075387Y2526709D01*
X4078027Y2516856D01*
X4081634Y2511508D01*
X4084627Y2508065D01*
X4089649Y2505166D01*
X4094153Y2504199D01*
X4102072Y2506321D01*
X4105490Y2509411D01*
X4108293Y2514406D01*
X4109260Y2518910D01*
X4133541Y2559270D02*
G01*
X4121265Y2526268D01*
X4150919Y2534213D01*
X4133541Y2559270D02*
G01*
X4144671Y2517735D01*
X4581100Y3333900D02*
G01*
X4579000Y3337900D01*
X4574900Y3342000D01*
X4570800Y3344100D01*
X4562700Y3344100D01*
X4558600Y3342000D01*
X4554500Y3337900D01*
X4552400Y3333900D01*
X4550400Y3327700D01*
X4550400Y3317500D01*
X4552400Y3311400D01*
X4554500Y3307300D01*
X4558600Y3303200D01*
X4562700Y3301100D01*
X4570800Y3301100D01*
X4574900Y3303200D01*
X4579000Y3307300D01*
X4581100Y3311400D01*
X4619100Y3344100D02*
G01*
X4598700Y3344100D01*
X4596600Y3325700D01*
X4598700Y3327700D01*
X4604800Y3329800D01*
X4610900Y3329800D01*
X4617100Y3327700D01*
X4621200Y3323600D01*
X4623200Y3317500D01*
X4623200Y3313399D01*
X4621200Y3307300D01*
X4617100Y3303200D01*
X4610900Y3301100D01*
X4604800Y3301100D01*
X4598700Y3303200D01*
X4596600Y3305200D01*
X4594600Y3309300D01*
X4561400Y3033900D02*
G01*
X4559400Y3037900D01*
X4555300Y3042000D01*
X4551200Y3044100D01*
X4543000Y3044100D01*
X4538900Y3042000D01*
X4534800Y3037900D01*
X4532800Y3033900D01*
X4530700Y3027700D01*
X4530700Y3017500D01*
X4532800Y3011400D01*
X4534800Y3007300D01*
X4538900Y3003200D01*
X4543000Y3001100D01*
X4551200Y3001100D01*
X4555300Y3003200D01*
X4559400Y3007300D01*
X4561400Y3011400D01*
X4599500Y3037900D02*
G01*
X4597400Y3042000D01*
X4591300Y3044100D01*
X4587200Y3044100D01*
X4581100Y3042000D01*
X4577000Y3035899D01*
X4574900Y3025700D01*
X4574900Y3015400D01*
X4577000Y3007300D01*
X4581100Y3003200D01*
X4587200Y3001100D01*
X4589200Y3001100D01*
X4595400Y3003200D01*
X4599500Y3007300D01*
X4601500Y3013399D01*
X4601500Y3015400D01*
X4599500Y3021600D01*
X4595400Y3025700D01*
X4589200Y3027700D01*
X4587200Y3027700D01*
X4581100Y3025700D01*
X4577000Y3021600D01*
X4574900Y3015400D01*
X3427400Y3033900D02*
G01*
X3425400Y3037900D01*
X3421300Y3042000D01*
X3417200Y3044100D01*
X3409000Y3044100D01*
X3404900Y3042000D01*
X3400800Y3037900D01*
X3398800Y3033900D01*
X3396700Y3027700D01*
X3396700Y3017500D01*
X3398800Y3011400D01*
X3400800Y3007300D01*
X3404900Y3003200D01*
X3409000Y3001100D01*
X3417200Y3001100D01*
X3421300Y3003200D01*
X3425400Y3007300D01*
X3427400Y3011400D01*
X3440899Y2986800D02*
G01*
X3477700Y2986800D01*
X3491200Y3044100D02*
G01*
X3491200Y3001100D01*
X3491200Y3044100D02*
G01*
X3509600Y3044100D01*
X3515800Y3042000D01*
X3517799Y3040000D01*
X3519900Y3035899D01*
X3519900Y3029800D01*
X3517799Y3025700D01*
X3515800Y3023600D01*
X3509600Y3021600D01*
X3491200Y3021600D01*
X3545600Y3044100D02*
G01*
X3541500Y3042000D01*
X3537400Y3037900D01*
X3535400Y3033900D01*
X3533399Y3027700D01*
X3533399Y3017500D01*
X3535400Y3011400D01*
X3537400Y3007300D01*
X3541500Y3003200D01*
X3545600Y3001100D01*
X3553800Y3001100D01*
X3557900Y3003200D01*
X3562000Y3007300D01*
X3564000Y3011400D01*
X3566100Y3017500D01*
X3566100Y3027700D01*
X3564000Y3033900D01*
X3562000Y3037900D01*
X3557900Y3042000D01*
X3553800Y3044100D01*
X3545600Y3044100D01*
X3593900Y3044100D02*
G01*
X3593900Y3001100D01*
X3579600Y3044100D02*
G01*
X3608200Y3044100D01*
X3621700Y2986800D02*
G01*
X3658500Y2986800D01*
X3672000Y3044100D02*
G01*
X3672000Y3001100D01*
X3672000Y3044100D02*
G01*
X3698600Y3044100D01*
X3672000Y3023600D02*
G01*
X3688399Y3023600D01*
X3712100Y3044100D02*
G01*
X3712100Y3001100D01*
X3725600Y3044100D02*
G01*
X3725600Y3001100D01*
X3725600Y3001100D02*
G01*
X3750200Y3001100D01*
X3778000Y3044100D02*
G01*
X3778000Y3001100D01*
X3763700Y3044100D02*
G01*
X3792300Y3044100D01*
X3805800Y3044100D02*
G01*
X3805800Y3001100D01*
X3805800Y3044100D02*
G01*
X3832400Y3044100D01*
X3805800Y3023600D02*
G01*
X3822200Y3023600D01*
X3805800Y3001100D02*
G01*
X3832400Y3001100D01*
X3845899Y3044100D02*
G01*
X3845899Y3001100D01*
X3845899Y3044100D02*
G01*
X3864300Y3044100D01*
X3870400Y3042000D01*
X3872500Y3040000D01*
X3874500Y3035899D01*
X3874500Y3031800D01*
X3872500Y3027700D01*
X3870400Y3025700D01*
X3864300Y3023600D01*
X3845899Y3023600D01*
X3860200Y3023600D02*
G01*
X3874500Y3001100D01*
X2774800Y1944100D02*
G01*
X2774800Y1901100D01*
X2774800Y1944100D02*
G01*
X2789200Y1944100D01*
X2795299Y1942000D01*
X2799400Y1937900D01*
X2801400Y1933899D01*
X2803500Y1927700D01*
X2803500Y1917500D01*
X2801400Y1911399D01*
X2799400Y1907300D01*
X2795299Y1903200D01*
X2789200Y1901100D01*
X2774800Y1901100D01*
X2817000Y1935900D02*
G01*
X2821100Y1937900D01*
X2827200Y1944100D01*
X2827200Y1901100D01*
X3174800Y1944100D02*
G01*
X3174800Y1901100D01*
X3174800Y1944100D02*
G01*
X3189200Y1944100D01*
X3195299Y1942000D01*
X3199400Y1937900D01*
X3201400Y1933899D01*
X3203500Y1927700D01*
X3203500Y1917500D01*
X3201400Y1911399D01*
X3199400Y1907300D01*
X3195299Y1903200D01*
X3189200Y1901100D01*
X3174800Y1901100D01*
X3219000Y1933899D02*
G01*
X3219000Y1935900D01*
X3221100Y1940000D01*
X3223100Y1942000D01*
X3227200Y1944100D01*
X3235400Y1944100D01*
X3239500Y1942000D01*
X3241500Y1940000D01*
X3243600Y1935900D01*
X3243600Y1931800D01*
X3241500Y1927700D01*
X3237400Y1921600D01*
X3217000Y1901100D01*
X3245600Y1901100D01*
X3574800Y1944100D02*
G01*
X3574800Y1901100D01*
X3574800Y1944100D02*
G01*
X3589200Y1944100D01*
X3595299Y1942000D01*
X3599400Y1937900D01*
X3601400Y1933899D01*
X3603500Y1927700D01*
X3603500Y1917500D01*
X3601400Y1911399D01*
X3599400Y1907300D01*
X3595299Y1903200D01*
X3589200Y1901100D01*
X3574800Y1901100D01*
X3621100Y1944100D02*
G01*
X3643600Y1944100D01*
X3631300Y1927700D01*
X3637400Y1927700D01*
X3641500Y1925700D01*
X3643600Y1923600D01*
X3645600Y1917500D01*
X3645600Y1913400D01*
X3643600Y1907300D01*
X3639500Y1903200D01*
X3633300Y1901100D01*
X3627200Y1901100D01*
X3621100Y1903200D01*
X3619000Y1905200D01*
X3617000Y1909300D01*
X3974800Y1944100D02*
G01*
X3974800Y1901100D01*
X3974800Y1944100D02*
G01*
X3989200Y1944100D01*
X3995299Y1942000D01*
X3999400Y1937900D01*
X4001400Y1933899D01*
X4003500Y1927700D01*
X4003500Y1917500D01*
X4001400Y1911399D01*
X3999400Y1907300D01*
X3995299Y1903200D01*
X3989200Y1901100D01*
X3974800Y1901100D01*
X4037400Y1944100D02*
G01*
X4017000Y1915400D01*
X4047700Y1915400D01*
X4037400Y1944100D02*
G01*
X4037400Y1901100D01*
X4574800Y3944100D02*
G01*
X4574800Y3901100D01*
X4574800Y3944100D02*
G01*
X4589200Y3944100D01*
X4595300Y3942000D01*
X4599400Y3937900D01*
X4601400Y3933900D01*
X4603500Y3927700D01*
X4603500Y3917500D01*
X4601400Y3911400D01*
X4599400Y3907300D01*
X4595300Y3903200D01*
X4589200Y3901100D01*
X4574800Y3901100D01*
X4641500Y3944100D02*
G01*
X4621100Y3944100D01*
X4619000Y3925700D01*
X4621100Y3927700D01*
X4627200Y3929800D01*
X4633300Y3929800D01*
X4639500Y3927700D01*
X4643600Y3923600D01*
X4645600Y3917500D01*
X4645600Y3913399D01*
X4643600Y3907300D01*
X4639500Y3903200D01*
X4633300Y3901100D01*
X4627200Y3901100D01*
X4621100Y3903200D01*
X4619000Y3905200D01*
X4617000Y3909300D01*
X2146300Y2744100D02*
G01*
X2146300Y2701100D01*
X2146300Y2744100D02*
G01*
X2160600Y2744100D01*
X2166800Y2742000D01*
X2170800Y2737900D01*
X2172900Y2733900D01*
X2174900Y2727700D01*
X2174900Y2717500D01*
X2172900Y2711400D01*
X2170800Y2707300D01*
X2166800Y2703200D01*
X2160600Y2701100D01*
X2146300Y2701100D01*
X2219100Y2733900D02*
G01*
X2217100Y2737900D01*
X2213000Y2742000D01*
X2208900Y2744100D01*
X2200700Y2744100D01*
X2196600Y2742000D01*
X2192500Y2737900D01*
X2190500Y2733900D01*
X2188400Y2727700D01*
X2188400Y2717500D01*
X2190500Y2711400D01*
X2192500Y2707300D01*
X2196600Y2703200D01*
X2200700Y2701100D01*
X2208900Y2701100D01*
X2213000Y2703200D01*
X2217100Y2707300D01*
X2219100Y2711400D01*
X2232600Y2735899D02*
G01*
X2236700Y2737900D01*
X2242800Y2744100D01*
X2242800Y2701100D01*
X4089513Y3448481D02*
G01*
X4103848Y3419091D01*
X4104678Y3412597D01*
X4103757Y3409923D01*
X4100993Y3406238D01*
X4097308Y3404441D01*
X4092702Y3404531D01*
X4090028Y3405452D01*
X4085422Y3410104D01*
X4083669Y3413698D01*
X4107915Y3446108D02*
G01*
X4107038Y3447906D01*
X4107129Y3452511D01*
X4108050Y3455186D01*
X4110813Y3458870D01*
X4118184Y3462465D01*
X4122790Y3462375D01*
X4125464Y3461454D01*
X4129149Y3458690D01*
X4130946Y3455005D01*
X4130856Y3450399D01*
X4129845Y3443119D01*
X4120496Y3415751D01*
X4146202Y3428288D01*
X4166400Y2944100D02*
G01*
X4162300Y2942000D01*
X4158300Y2937900D01*
X4156200Y2933900D01*
X4154200Y2927700D01*
X4154200Y2917500D01*
X4156200Y2911400D01*
X4158300Y2907300D01*
X4162300Y2903200D01*
X4166400Y2901100D01*
X4174600Y2901100D01*
X4178700Y2903200D01*
X4182799Y2907300D01*
X4184800Y2911400D01*
X4186900Y2917500D01*
X4186900Y2927700D01*
X4184800Y2933900D01*
X4182799Y2937900D01*
X4178700Y2942000D01*
X4174600Y2944100D01*
X4166400Y2944100D01*
X4172600Y2909300D02*
G01*
X4184800Y2897000D01*
X4200400Y2935899D02*
G01*
X4204500Y2937900D01*
X4210600Y2944100D01*
X4210600Y2901100D01*
X2237100Y1944100D02*
G01*
X2237100Y1901100D01*
X2237100Y1944100D02*
G01*
X2255500Y1944100D01*
X2261600Y1942000D01*
X2263700Y1940000D01*
X2265700Y1935900D01*
X2265700Y1931800D01*
X2263700Y1927700D01*
X2261600Y1925700D01*
X2255500Y1923600D01*
X2237100Y1923600D01*
X2251400Y1923600D02*
G01*
X2265700Y1901100D01*
X2281300Y1933899D02*
G01*
X2281300Y1935900D01*
X2283300Y1940000D01*
X2285400Y1942000D01*
X2289500Y1944100D01*
X2297600Y1944100D01*
X2301700Y1942000D01*
X2303800Y1940000D01*
X2305800Y1935900D01*
X2305800Y1931800D01*
X2303800Y1927700D01*
X2299700Y1921600D01*
X2279200Y1901100D01*
X2307900Y1901100D01*
X4504000Y2744100D02*
G01*
X4504000Y2701100D01*
X4504000Y2744100D02*
G01*
X4522400Y2744100D01*
X4528500Y2742000D01*
X4530600Y2740000D01*
X4532600Y2735899D01*
X4532600Y2731800D01*
X4530600Y2727700D01*
X4528500Y2725700D01*
X4522400Y2723600D01*
X4504000Y2723600D01*
X4518300Y2723600D02*
G01*
X4532600Y2701100D01*
X4550200Y2744100D02*
G01*
X4572700Y2744100D01*
X4560400Y2727700D01*
X4566600Y2727700D01*
X4570700Y2725700D01*
X4572700Y2723600D01*
X4574800Y2717500D01*
X4574800Y2713399D01*
X4572700Y2707300D01*
X4568600Y2703200D01*
X4562500Y2701100D01*
X4556300Y2701100D01*
X4550200Y2703200D01*
X4548200Y2705200D01*
X4546100Y2709300D01*
X4704000Y2744100D02*
G01*
X4704000Y2701100D01*
X4704000Y2744100D02*
G01*
X4722400Y2744100D01*
X4728500Y2742000D01*
X4730600Y2740000D01*
X4732600Y2735899D01*
X4732600Y2731800D01*
X4730600Y2727700D01*
X4728500Y2725700D01*
X4722400Y2723600D01*
X4704000Y2723600D01*
X4718300Y2723600D02*
G01*
X4732600Y2701100D01*
X4766600Y2744100D02*
G01*
X4746100Y2715400D01*
X4776800Y2715400D01*
X4766600Y2744100D02*
G01*
X4766600Y2701100D01*
X4504000Y2444100D02*
G01*
X4504000Y2401100D01*
X4504000Y2444100D02*
G01*
X4522400Y2444100D01*
X4528500Y2442000D01*
X4530600Y2440000D01*
X4532600Y2435900D01*
X4532600Y2431800D01*
X4530600Y2427700D01*
X4528500Y2425700D01*
X4522400Y2423600D01*
X4504000Y2423600D01*
X4518300Y2423600D02*
G01*
X4532600Y2401100D01*
X4570700Y2444100D02*
G01*
X4550200Y2444100D01*
X4548200Y2425700D01*
X4550200Y2427700D01*
X4556300Y2429800D01*
X4562500Y2429800D01*
X4568600Y2427700D01*
X4572700Y2423600D01*
X4574800Y2417500D01*
X4574800Y2413400D01*
X4572700Y2407300D01*
X4568600Y2403200D01*
X4562500Y2401100D01*
X4556300Y2401100D01*
X4550200Y2403200D01*
X4548200Y2405200D01*
X4546100Y2409300D01*
X3054400Y2744100D02*
G01*
X3054400Y2701100D01*
X3054400Y2744100D02*
G01*
X3072900Y2744100D01*
X3079000Y2742000D01*
X3081000Y2740000D01*
X3083100Y2735899D01*
X3083100Y2731800D01*
X3081000Y2727700D01*
X3079000Y2725700D01*
X3072900Y2723600D01*
X3054400Y2723600D01*
X3068800Y2723600D02*
G01*
X3083100Y2701100D01*
X3096600Y2686800D02*
G01*
X3133399Y2686800D01*
X3146900Y2744100D02*
G01*
X3146900Y2701100D01*
X3146900Y2744100D02*
G01*
X3165299Y2744100D01*
X3171400Y2742000D01*
X3173500Y2740000D01*
X3175500Y2735899D01*
X3175500Y2729800D01*
X3173500Y2725700D01*
X3171400Y2723600D01*
X3165299Y2721600D01*
X3146900Y2721600D01*
X3201300Y2744100D02*
G01*
X3197200Y2742000D01*
X3193100Y2737900D01*
X3191100Y2733900D01*
X3189000Y2727700D01*
X3189000Y2717500D01*
X3191100Y2711400D01*
X3193100Y2707300D01*
X3197200Y2703200D01*
X3201300Y2701100D01*
X3209500Y2701100D01*
X3213600Y2703200D01*
X3217700Y2707300D01*
X3219700Y2711400D01*
X3221800Y2717500D01*
X3221800Y2727700D01*
X3219700Y2733900D01*
X3217700Y2737900D01*
X3213600Y2742000D01*
X3209500Y2744100D01*
X3201300Y2744100D01*
X3249600Y2744100D02*
G01*
X3249600Y2701100D01*
X3235299Y2744100D02*
G01*
X3263900Y2744100D01*
X2547200Y3944100D02*
G01*
X2547200Y3901100D01*
X2532800Y3944100D02*
G01*
X2561500Y3944100D01*
X2575000Y3935899D02*
G01*
X2579100Y3937900D01*
X2585200Y3944100D01*
X2585200Y3901100D01*
X3528800Y3944100D02*
G01*
X3528800Y3913399D01*
X3530899Y3907300D01*
X3535000Y3903200D01*
X3541100Y3901100D01*
X3545200Y3901100D01*
X3551300Y3903200D01*
X3555400Y3907300D01*
X3557500Y3913399D01*
X3557500Y3944100D01*
X3571000Y3935899D02*
G01*
X3575100Y3937900D01*
X3581200Y3944100D01*
X3581200Y3901100D01*
X3524500Y2744100D02*
G01*
X3524500Y2713399D01*
X3526500Y2707300D01*
X3530600Y2703200D01*
X3536700Y2701100D01*
X3540800Y2701100D01*
X3547000Y2703200D01*
X3551100Y2707300D01*
X3553100Y2713399D01*
X3553100Y2744100D01*
X3568600Y2733900D02*
G01*
X3568600Y2735899D01*
X3570700Y2740000D01*
X3572700Y2742000D01*
X3576800Y2744100D01*
X3585000Y2744100D01*
X3589100Y2742000D01*
X3591100Y2740000D01*
X3593200Y2735899D01*
X3593200Y2731800D01*
X3591100Y2727700D01*
X3587100Y2721600D01*
X3566600Y2701100D01*
X3595200Y2701100D01*
X4161900Y3944100D02*
G01*
X4161900Y3913399D01*
X4163900Y3907300D01*
X4168000Y3903200D01*
X4174100Y3901100D01*
X4178200Y3901100D01*
X4184400Y3903200D01*
X4188500Y3907300D01*
X4190500Y3913399D01*
X4190500Y3944100D01*
X4208100Y3944100D02*
G01*
X4230600Y3944100D01*
X4218300Y3927700D01*
X4224500Y3927700D01*
X4228500Y3925700D01*
X4230600Y3923600D01*
X4232600Y3917500D01*
X4232600Y3913399D01*
X4230600Y3907300D01*
X4226500Y3903200D01*
X4220400Y3901100D01*
X4214200Y3901100D01*
X4208100Y3903200D01*
X4206000Y3905200D01*
X4204000Y3909300D01*
X2657300Y2744100D02*
G01*
X2657300Y2713399D01*
X2659300Y2707300D01*
X2663399Y2703200D01*
X2669600Y2701100D01*
X2673600Y2701100D01*
X2679800Y2703200D01*
X2683900Y2707300D01*
X2685899Y2713399D01*
X2685899Y2744100D01*
X2719900Y2744100D02*
G01*
X2699400Y2715400D01*
X2730100Y2715400D01*
X2719900Y2744100D02*
G01*
X2719900Y2701100D01*
G36*
X2715920Y1881860D02*
G01*
X2715920Y1775500D01*
X2735920Y1775500D01*
X2735920Y1881860D01*
G37*
G36*
X3115920Y1881860D02*
G01*
X3115920Y1775500D01*
X3135920Y1775500D01*
X3135920Y1881860D01*
G37*
G36*
X3515920Y1881860D02*
G01*
X3515920Y1775500D01*
X3535920Y1775500D01*
X3535920Y1881860D01*
G37*
G36*
X3915920Y1881860D02*
G01*
X3915920Y1775500D01*
X3935920Y1775500D01*
X3935920Y1881860D01*
G37*
G36*
X4515920Y3881860D02*
G01*
X4515920Y3775500D01*
X4535920Y3775500D01*
X4535920Y3881860D01*
G37*
G36*
X3056920Y3882440D02*
G01*
X3130539Y3808820D01*
X3130539Y3882440D01*
G37*
X4598060Y3584246D02*
G01*
X4542548Y3584246D01*
X4542548Y3513097D02*
G01*
X4598060Y3513097D01*
X4604060Y3519097D02*
G01*
X4604060Y3578247D01*
X4455446Y3584246D02*
G01*
X4510958Y3584246D01*
X4510958Y3513097D02*
G01*
X4455446Y3513097D01*
X4449446Y3519097D02*
G01*
X4449446Y3578247D01*
D11*
X4095196Y2418672D02*
G01*
X4121493Y2418672D01*
X4070620Y2418672D02*
G01*
X4044323Y2418672D01*
X4073068Y2480877D02*
G01*
X4073068Y2355681D01*
X4095196Y2481270D02*
G01*
X4095196Y2356074D01*
X4182910Y2374138D02*
G01*
X4182910Y2356074D01*
X3982910Y2356074D01*
X3982910Y2374138D01*
X4182910Y2463206D02*
G01*
X4182910Y2481270D01*
X3982910Y2481270D01*
X3982910Y2463206D01*
D10*
X4645305Y3281687D02*
G01*
X4586841Y3281687D01*
X4586841Y3195656D02*
G01*
X4645305Y3195656D01*
X4651305Y3201656D02*
G01*
X4651305Y3275688D01*
X4455447Y3281687D02*
G01*
X4513911Y3281687D01*
X4513911Y3195656D02*
G01*
X4455447Y3195656D01*
X4449447Y3201656D02*
G01*
X4449447Y3275688D01*
D12*
X4530746Y2966232D02*
G01*
X4530746Y2911112D01*
D11*
X3357351Y2968202D02*
G01*
X3436091Y2968202D01*
X3436091Y2909142D01*
X3357351Y2909142D01*
X3357351Y2968202D01*
D10*
X2833767Y1774490D02*
G01*
X2715911Y1774490D01*
X2715911Y1882854D01*
X2833767Y1882854D01*
X3233767Y1774490D02*
G01*
X3115911Y1774490D01*
X3115911Y1882854D01*
X3233767Y1882854D01*
X3633767Y1774490D02*
G01*
X3515911Y1774490D01*
X3515911Y1882854D01*
X3633767Y1882854D01*
X4033767Y1774490D02*
G01*
X3915911Y1774490D01*
X3915911Y1882854D01*
X4033767Y1882854D01*
X4633767Y3774490D02*
G01*
X4515911Y3774490D01*
X4515911Y3882854D01*
X4633767Y3882854D01*
D11*
X2343147Y2519484D02*
G01*
X2343147Y2678672D01*
X1949447Y2678672D01*
X1949447Y2519484D01*
X1949447Y2334445D02*
G01*
X1949447Y2404789D01*
X2111758Y2166862D02*
G01*
X1949447Y2166862D01*
X1949447Y2219750D01*
X2343147Y2219750D02*
G01*
X2343147Y2166862D01*
X2180836Y2166862D01*
X2343147Y2404789D02*
G01*
X2343147Y2334445D01*
X4037084Y3383672D02*
G01*
X4037084Y3358672D01*
X4157084Y3358672D01*
X4157084Y3387174D01*
X4244722Y3158831D02*
G01*
X4244722Y3387174D01*
X3949446Y3387174D01*
X3949446Y3158831D01*
X4244722Y3158831D01*
X4073921Y3387172D02*
G01*
X4064520Y3387172D01*
X3954169Y2782672D02*
G01*
X4328973Y2781820D01*
X4356926Y2782091D01*
X3954169Y2702686D02*
G01*
X3954169Y2888512D01*
X4356926Y2888512D01*
X4356926Y2702686D01*
X3954169Y2702686D01*
X1949445Y1887092D02*
G01*
X2539995Y1887092D01*
X2539995Y1690242D01*
X1949445Y1690242D01*
X1949445Y1887092D01*
D10*
X4520757Y2632663D02*
G01*
X4558508Y2632663D01*
X4558508Y2684680D01*
X4520757Y2684680D01*
X4487197Y2632663D02*
G01*
X4449446Y2632663D01*
X4449446Y2684680D01*
X4487197Y2684680D01*
X4720757Y2632663D02*
G01*
X4758508Y2632663D01*
X4758508Y2684680D01*
X4720757Y2684680D01*
X4687197Y2632663D02*
G01*
X4649446Y2632663D01*
X4649446Y2684680D01*
X4687197Y2684680D01*
X4520757Y2332664D02*
G01*
X4558508Y2332664D01*
X4558508Y2384680D01*
X4520757Y2384680D01*
X4487197Y2332664D02*
G01*
X4449446Y2332664D01*
X4449446Y2384680D01*
X4487197Y2384680D01*
D11*
X3109446Y2618672D02*
G01*
X3124446Y2618672D01*
X3139446Y2618672D01*
X3124446Y2618672D01*
X2949446Y2698272D02*
G01*
X3159446Y2698272D01*
X3159446Y2318272D01*
X2949446Y2318272D01*
X2949446Y2698272D01*
X2955505Y2695282D02*
G01*
X2963376Y2695282D01*
X2963376Y2665282D01*
X2955505Y2665282D01*
X2955505Y2695282D01*
X2955505Y2351272D02*
G01*
X2963376Y2351272D01*
X2963376Y2321272D01*
X2955505Y2321272D01*
X2955505Y2351272D01*
X1949447Y3882442D02*
G01*
X3130547Y3882442D01*
X3130547Y2937562D01*
X1949447Y2937562D01*
X1949447Y3882442D01*
D13*
X3278985Y3663632D02*
G01*
X3278985Y3875442D01*
X3798664Y3875442D01*
X3798664Y3663632D01*
D14*
X3361966Y2593672D02*
G01*
X3706966Y2593672D01*
X3706966Y2483672D01*
X3361966Y2483672D01*
X3361966Y2593672D01*
D10*
X4016172Y3616931D02*
G01*
X4251108Y3616931D01*
X4251108Y3880413D01*
X4016172Y3880413D01*
D14*
X2477790Y2523869D02*
G01*
X2477778Y2523672D01*
X2477778Y2602971D01*
X2867577Y2602971D01*
X2867577Y2394372D01*
X2477778Y2394372D01*
X2477778Y2473672D01*
X2477790Y2473475D01*
D10*
G75*
G01*
X4598060Y3513097D02*
G03*
X4604060Y3519097I0J6000D01*
G75*
G01*
X4604060Y3578247D02*
G03*
X4598060Y3584247I-6000J0D01*
G75*
G01*
X4449446Y3519097D02*
G03*
X4455446Y3513097I6000J0D01*
G75*
G01*
X4455446Y3584247D02*
G03*
X4449446Y3578247I0J-6000D01*
G75*
G01*
X4645305Y3195656D02*
G03*
X4651305Y3201656I0J6000D01*
G75*
G01*
X4651305Y3275688D02*
G03*
X4645305Y3281688I-6000J0D01*
G75*
G01*
X4449447Y3201656D02*
G03*
X4455447Y3195656I6000J0D01*
G75*
G01*
X4455447Y3281688D02*
G03*
X4449447Y3275688I0J-6000D01*
D11*
G75*
G01*
X4064168Y2698672D02*
G03*
X4064166Y2698452I-10000J-1D01*
G75*
G01*
X3145693Y2618672D02*
G03*
X3145693Y2618272I-21259J-200D01*
D12*
G75*
G01*
X3257325Y3599852D02*
G03*
X3257325Y3599682I-3939J-85D01*
D16*
G75*
G01*
X3390378Y2508392D02*
G03*
X3390372Y2508130I-5910J0D01*
G75*
G01*
X3361268Y2429652D02*
G03*
X3361262Y2429390I-5910J0D01*
G75*
G01*
X3361268Y2429652D02*
G03*
X3361262Y2429390I-5910J0D01*
G75*
G01*
X3390378Y2508392D02*
G03*
X3390372Y2508130I-5910J0D01*
D14*
G75*
G01*
X2477790Y2473475D02*
G03*
X2477790Y2523475I0J25000D01*
D17*
G75*
G01*
X2466178Y2348672D02*
G03*
X2466179Y2348825I4921J51D01*
D18*
G75*
G01*
X2497078Y2433672D02*
G03*
X2497078Y2433872I11811J100D01*
M02*
