G04 Layer: BottomSolderMaskLayer*
G04 EasyEDA v6.5.51, 2026-06-12 00:00:43*
G04 721b8d7b2a2e4cdb981c8f928fe5aa8b,10*
G04 Gerber Generator version 0.2*
G04 Scale: 100 percent, Rotated: No, Reflected: No *
G04 Dimensions in inches *
G04 leading zeros omitted , absolute positions ,3 integer and 6 decimal *
%FSLAX36Y36*%
%MOIN*%

%AMMACRO1*4,1,8,-0.0363,-0.0374,-0.0374,-0.0363,-0.0374,0.0363,-0.0363,0.0374,0.0363,0.0374,0.0374,0.0363,0.0374,-0.0363,0.0363,-0.0374,-0.0363,-0.0374,0*%
%AMMACRO2*4,1,8,-0.0402,-0.0414,-0.0414,-0.0402,-0.0414,0.0402,-0.0402,0.0414,0.0402,0.0414,0.0414,0.0402,0.0414,-0.0402,0.0402,-0.0414,-0.0402,-0.0414,0*%
%AMMACRO3*4,1,8,-0.0304,-0.0315,-0.0315,-0.0304,-0.0315,0.0304,-0.0304,0.0315,0.0304,0.0315,0.0315,0.0304,0.0315,-0.0304,0.0304,-0.0315,-0.0304,-0.0315,0*%
%ADD10C,0.0670*%
%ADD11C,0.0946*%
%ADD12C,0.0906*%
%ADD13O,0.141795X0.051244*%
%ADD14O,0.051244X0.102425*%
%ADD15C,0.0709*%
%ADD16C,0.0163*%
%ADD17MACRO1*%
%ADD18C,0.0749*%
%ADD19C,0.0640*%
%ADD20C,0.0827*%
%ADD21MACRO2*%
%ADD22MACRO3*%
%ADD23C,0.0631*%

%LPD*%
D10*
G01*
X4182910Y2418670D03*
G01*
X3982910Y2418670D03*
D11*
G01*
X3296720Y2938670D03*
G01*
X3496720Y2938670D03*
D10*
G01*
X2146300Y2570400D03*
D12*
G01*
X2146300Y2206230D03*
D13*
G01*
X2146300Y2442450D03*
D14*
G01*
X1957320Y2462140D03*
G01*
X2335270Y2462140D03*
G01*
X1957320Y2277100D03*
G01*
X2335270Y2277100D03*
D15*
G01*
X4047870Y3293670D03*
G01*
X4146300Y3293670D03*
D17*
G01*
X4054170Y2778680D03*
D18*
G01*
X4154169Y2778670D03*
G01*
X4254170Y2778670D03*
G01*
X2097090Y1788670D03*
G01*
X2392360Y1788670D03*
D19*
G01*
X3057080Y2508280D03*
G01*
X3057080Y2608279D03*
G01*
X3057080Y2408280D03*
D20*
G01*
X2047850Y3016280D03*
G01*
X2244750Y3016280D03*
G01*
X2441550Y3016280D03*
G01*
X2638450Y3016280D03*
G01*
X2835250Y3016280D03*
G01*
X3032149Y3016280D03*
G01*
X2047850Y3803680D03*
G01*
X2441550Y3803680D03*
G01*
X2638450Y3803680D03*
G01*
X2835250Y3803680D03*
D21*
G01*
X3032149Y3803730D03*
D22*
G01*
X2522280Y2348669D03*
D23*
G01*
X2622280Y2348670D03*
G01*
X2722280Y2348670D03*
G01*
X2822280Y2348670D03*
G01*
X2522280Y2648670D03*
G01*
X2622280Y2648670D03*
G01*
X2722280Y2648670D03*
G01*
X2822280Y2648670D03*
M02*
